<svg width="428" height="374" viewBox="0 0 428 374" fill="none" xmlns="http://www.w3.org/2000/svg">
<path d="M188.01 300.52C188.068 299.384 188.177 298.249 188.177 297.113C188.177 267.765 188.171 238.418 188.158 209.072C188.158 207.936 188.058 206.798 188.005 205.661C188.307 187.789 188.307 169.916 188.005 152.044C188.286 135.777 188.284 119.51 187.998 103.244C188.056 101.991 188.162 100.738 188.163 99.4848C188.175 86.4338 188.128 73.3878 188.18 60.3428C188.209 53.1218 191.249 48.5048 197.02 46.5988C199.236 46.0203 201.531 45.8025 203.816 45.9538C245.016 45.9538 286.216 45.9562 327.416 45.9608C328.555 45.9638 329.701 45.9538 330.841 46.0538C333.851 46.294 336.684 47.5774 338.849 49.6828C341.014 51.7881 342.376 54.5833 342.701 57.5858C343.525 64.5348 342.601 71.5168 343.253 78.4628C343.175 79.7088 343.03 80.9568 343.029 82.2038C343.023 102.797 343.029 123.391 343.047 143.986C343.06 155.422 343.119 166.858 343.157 178.292C341.865 179.551 340.286 180.477 338.557 180.992C338.49 180.525 338.424 180.056 338.357 179.585C338.369 170.4 338.38 161.215 338.391 152.031C338.381 147.226 338.371 142.422 338.361 137.618C338.361 120.655 338.358 103.692 338.353 86.7288C338.353 83.7748 338.356 80.8208 338.361 77.8668C338.398 71.5968 338.544 65.3258 338.439 59.0578C338.465 57.9064 338.254 56.7619 337.821 55.695C337.387 54.6281 336.739 53.6614 335.917 52.8546C335.095 52.0479 334.117 51.4182 333.042 51.0044C331.967 50.5906 330.819 50.4015 329.668 50.4488C315.873 50.3488 302.077 50.4838 288.282 50.5248L279.451 50.4818C254.17 50.4452 228.889 50.4118 203.609 50.3818C195.937 50.3718 192.779 53.5338 192.777 61.1878C192.77 93.6772 192.77 126.166 192.777 158.656C192.777 159.681 192.871 160.707 192.92 161.732C192.905 164.69 192.889 167.647 192.874 170.605C192.886 176.128 192.898 181.652 192.91 187.176C192.913 192.406 192.917 197.635 192.921 202.865C192.912 223.049 192.902 243.233 192.893 263.417C192.893 266.377 192.893 269.337 192.893 272.298C192.854 295.615 192.772 318.933 192.812 342.25C192.821 347.31 196.089 350.826 201.152 350.865C216.919 350.989 232.688 350.835 248.452 350.79C250.971 351.077 253.514 351.067 256.031 350.76C269.641 350.834 283.25 350.938 296.86 350.968C301.887 350.979 306.913 350.816 311.94 350.733C313.411 352.961 316.676 352.885 317.926 355.395C316.901 355.44 315.876 355.526 314.851 355.526C277.683 355.532 240.516 355.532 203.351 355.526C193.401 355.528 188.201 350.299 188.171 340.3C188.124 327.04 188.071 313.78 188.01 300.52Z" fill="#2A2D33"/>
<path d="M323.1 217.652C323.1 217.652 276.824 219.386 276.535 247.442C276.246 275.498 270.172 293.141 270.172 293.141C270.172 293.141 266.412 320.618 273.353 322.353C280.294 324.088 294.178 327.27 294.178 327.27L297.07 329.584C297.07 329.584 300.541 347.516 311.531 353.879C322.521 360.242 335.826 236.742 335.826 236.742L323.1 217.652Z" fill="white"/>
<path d="M314.393 355.375C312.967 352.514 309.246 352.601 307.57 350.061C304.686 346.567 302.227 342.743 300.246 338.669C298.378 335.08 299.661 329.744 295.679 327.75C292.094 325.95 287.674 325.816 283.616 324.978C281.841 324.611 280.035 324.386 278.271 323.978C276.398 323.549 274.438 323.265 272.982 321.797C272.894 321.135 272.834 320.458 272.101 320.137L272.22 320.242C272.091 319.596 272.12 318.867 271.34 318.565L271.433 318.63C269.993 309.044 271.533 307.259 281.483 306.993C281.613 306.993 281.743 306.981 281.874 306.98C299.219 306.895 316.566 306.639 333.91 306.78C347.855 306.896 361.823 306.445 375.741 307.764C383.941 308.541 392.411 309.164 398.921 314.757C407.366 322.013 417.043 325.747 427.86 327.133C427.901 327.45 427.943 327.768 427.985 328.085C408.457 328.121 388.928 328.221 369.4 328.124C366.539 328.11 365.4 328.878 364.772 331.752C363.405 338.823 359.914 345.31 354.764 350.345C353.109 352.008 351.137 353.321 348.965 354.207C346.793 355.093 344.465 355.533 342.119 355.502C332.877 355.425 323.635 355.41 314.393 355.369M327.27 328.195C328.075 333.613 330.652 338.612 334.598 342.411C339.823 347.375 346.076 347.311 351.354 342.366C354.866 339.075 356.854 334.842 358.266 330.316C358.689 328.962 358.594 328.152 356.766 328.164C347.007 328.229 337.247 328.195 327.266 328.195" fill="#121212"/>
<path d="M372.355 194.78C390.496 189.33 409.21 187.644 427.98 186.325C427.987 195.991 427.994 205.655 428 215.315C424.684 216.755 421.171 216.824 417.64 216.861C391.938 217.127 366.238 217.412 340.54 217.714C334.477 217.795 328.419 218.243 322.263 218.136C339.084 210.491 355.163 201.436 372.363 194.779" fill="#2A2D33"/>
<path d="M272.786 191.788C279.313 189.168 285.036 185.088 291.113 181.651C306.686 172.851 322.158 163.88 337.671 154.976C337.748 155.509 337.826 156.042 337.903 156.576C329.662 162.076 320.873 166.654 312.333 171.65C301.2 178.163 290.033 184.626 278.833 191.039C276.972 192.109 275.047 193.571 272.785 191.783" fill="#FEFEFE"/>
<path d="M327.275 328.201C337.257 328.201 347.016 328.235 356.775 328.17C358.598 328.158 358.693 328.97 358.275 330.322C356.859 334.848 354.875 339.082 351.363 342.372C346.086 347.316 339.833 347.38 334.607 342.417C330.661 338.618 328.084 333.619 327.279 328.201" fill="#FEFEFE"/>
<path d="M272.223 320.244C271.323 320.002 271.389 319.256 271.344 318.567C272.126 318.867 272.094 319.599 272.223 320.244Z" fill="#FEFEFE"/>
<path d="M272.981 321.8C272.2 321.505 272.174 320.81 272.1 320.14C272.833 320.46 272.893 321.14 272.981 321.8Z" fill="#FEFEFE"/>
<path d="M330.122 260.735C322.817 260.735 315.508 260.618 308.207 260.79C305.147 260.862 304.617 259.453 305.093 256.96C305.263 256.069 305.593 255.201 305.693 254.304C306.628 245.822 306.618 245.82 315.274 245.82C327.537 245.82 339.799 245.82 352.062 245.82C356.701 245.825 357.121 246.349 356.227 250.764C356.127 251.273 356.006 251.781 355.954 252.296C355.094 260.731 355.096 260.731 346.554 260.731H330.122" fill="#D2D2D2"/>
<path d="M338.003 204.191C337.906 190.91 337.808 177.629 337.711 164.349C337.711 163.841 337.714 163.333 337.72 162.825C339.224 161.446 341.055 160.474 343.04 160.001C343.12 173.709 343.2 187.42 343.281 201.132C342.011 202.997 339.816 203.264 338.003 204.191Z" fill="#2A2D33"/>
<path d="M427.884 249.645C410.034 250.274 392.175 250.724 374.338 251.615C366.402 252.015 362.029 246.767 357.309 242.049C355.324 240.064 357.78 239.486 359.231 239.243C364.368 238.384 369.548 237.779 374.675 236.867C385.951 234.862 397.223 232.823 408.46 230.609C415.091 229.302 421.4 231.234 427.834 231.988C427.851 237.873 427.868 243.759 427.885 249.644" fill="#CECECE"/>
<path d="M278.422 251.278C274.822 244.306 276.97 236.347 283.043 234.173C286.843 239.101 292.543 239.573 298.004 240.3C301.196 240.727 304.493 240.349 307.743 240.373C308.336 240.373 309.109 240.14 309.419 240.943C309.714 241.705 309.052 242.102 308.661 242.581C301.587 251.233 289.5 254.707 278.422 251.281" fill="#CECECE"/>
<path d="M365.221 297.513C367.233 294.381 369.804 293.9 372.403 293.875C387.112 293.736 401.823 293.684 416.533 293.641C417.502 293.641 418.964 293.233 419.28 294.455C419.661 295.931 418.038 296.187 417.086 296.723C415.81 297.388 414.384 297.712 412.946 297.663C398.369 297.748 383.793 297.836 369.216 297.928C368.073 297.933 366.928 297.698 365.222 297.513" fill="#CECECE"/>
<path d="M271.448 297.713C270.06 296.593 270.516 295.196 270.866 293.813C273.592 293.801 276.317 293.797 279.04 293.777C280.261 293.685 281.479 293.996 282.507 294.662C283.535 295.328 284.316 296.313 284.731 297.466C280.187 298.519 275.782 297.205 271.448 297.711" fill="#CECECE"/>
<path d="M232.895 99.4348L233.683 98.4958L232.895 99.4348Z" fill="#B1DEE5"/>
<path d="M199.413 50.2848C205.276 49.7188 331.387 50.2848 331.387 50.2848C331.387 50.2848 339.264 51.9848 338.797 59.8548C338.33 67.7248 338.063 210.696 338.063 210.696C338.063 210.696 303.356 216.19 282.821 233.834C262.286 251.478 271.541 320.023 271.541 320.023L274.141 322.916C274.141 322.916 298.436 325.229 298.725 330.436C299.014 335.643 305.088 347.21 310.005 351.26C314.922 355.31 198.36 351.26 198.36 351.26L193.733 349.245L191.998 343.172V56.0728C192.544 54.4959 193.535 53.1107 194.851 52.0838C196.166 51.0569 197.751 50.4322 199.413 50.2848Z" fill="#ECF2FA"/>
<path d="M312.5 116.001H216.5C211.805 116.001 208 119.806 208 124.501C208 129.195 211.805 133.001 216.5 133.001H312.5C317.194 133.001 321 129.195 321 124.501C321 119.806 317.194 116.001 312.5 116.001Z" fill="#D9E2EE"/>
<path d="M312.5 141.001H216.5C211.805 141.001 208 144.806 208 149.501C208 154.195 211.805 158.001 216.5 158.001H312.5C317.194 158.001 321 154.195 321 149.501C321 144.806 317.194 141.001 312.5 141.001Z" fill="#D9E2EE"/>
<path d="M288.5 174.001H240.5C235.805 174.001 232 177.806 232 182.501C232 187.195 235.805 191.001 240.5 191.001H288.5C293.194 191.001 297 187.195 297 182.501C297 177.806 293.194 174.001 288.5 174.001Z" fill="#BDCCE1"/>
<path d="M129.186 153.775C128.886 154.72 129.977 155.697 129.12 156.629C126.22 157.248 123.37 158.043 120.532 158.924C115.47 160.495 110.468 162.292 105.132 162.881C101.487 163.281 97.837 163.555 94.183 163.829C88.583 164.249 83.026 165.118 77.393 165.14C76.277 165.14 75.18 163.996 74.056 165.068C73.275 164.628 72.6085 164.011 72.1105 163.266C71.6124 162.521 71.2967 161.67 71.189 160.78C70.019 154.822 68.789 148.88 67.589 142.926C67.508 142.069 67.5 141.198 67.334 140.357C65.6957 131.868 65.4354 123.17 66.563 114.598C67.491 107.168 69.1 100.058 75.241 94.8849C77.469 93.0089 79.897 91.4509 82.279 89.8089C83.7828 89.2628 85.1683 88.4343 86.361 87.3679C89.486 88.6439 92.005 91.0679 95.267 92.0829C95.3652 92.2409 95.5054 92.3686 95.6718 92.4518C95.8383 92.5349 96.0246 92.5703 96.21 92.5539L96.389 92.6639L96.197 92.5639C96.1031 92.4019 95.9636 92.2711 95.7959 92.1879C95.6282 92.1046 95.4397 92.0726 95.254 92.0959C94.905 90.4959 93.546 89.7609 92.435 88.8159C90.5598 87.4153 88.9295 85.714 87.61 83.7809C87.6548 82.7386 87.9487 81.7223 88.467 80.8169C93.1569 83.3494 97.5165 86.4508 101.447 90.0509C103.675 92.0509 105.812 94.0929 105.765 97.4709C105.839 98.2554 106.129 99.004 106.604 99.6329C111.685 107.374 115.411 115.811 119.286 124.172L120.901 128.592C120.531 129.284 119.977 129.861 119.301 130.259C115.411 132.946 110.743 134.276 106.021 134.043C104.457 133.987 102.946 133.462 101.684 132.537C100.422 131.611 99.4667 130.328 98.943 128.853C97.9057 125.749 97.2915 122.52 97.117 119.253C96.8433 116.085 95.8045 113.031 94.09 110.353C94.8584 113.978 95.2299 117.677 95.198 121.383C95.1048 128.469 94.3437 135.531 92.925 142.475C92.35 145.393 92.664 145.625 95.779 145.775C100.337 146.001 104.198 143.648 108.345 142.423C113.787 140.815 119.088 138.723 124.445 136.845L125.455 138.303L127.307 144.835L129.186 153.773" fill="#3422F2"/>
<path d="M128.629 162.243C128.772 163.982 128.915 165.72 129.058 167.459C128.902 167.685 128.794 167.941 128.743 168.21C128.691 168.48 128.696 168.757 128.758 169.025C129.058 172.834 129.337 176.644 129.658 180.45C130.182 186.75 130.658 193.05 131.32 199.332C131.461 200.682 131.12 201.152 129.932 201.489C126.913 202.281 123.841 202.86 120.741 203.221C116.456 203.81 112.141 203.447 107.847 203.797C97.471 204.642 87.096 205.515 76.921 202.287C75.0926 201.54 73.3452 200.609 71.706 199.507C71.3424 199.213 71.0976 198.797 71.0165 198.336C70.9355 197.875 71.0237 197.401 71.265 197C73.531 192.616 74.157 187.832 74.637 183C75.152 177.8 75.044 172.548 76.167 167.413C77.5629 167.547 78.9375 167.849 80.261 168.313C81.9914 168.794 83.7989 168.935 85.583 168.728C89.352 168.22 93.142 167.861 96.922 167.428C101.706 166.883 106.485 166.289 111.275 165.787C117.175 165.169 122.86 163.495 128.629 162.241M125.164 173.125C124.319 173.299 123.65 173.758 123.601 174.625C123.585 174.84 123.614 175.056 123.685 175.26C123.757 175.463 123.869 175.649 124.016 175.807C124.163 175.965 124.341 176.091 124.539 176.177C124.737 176.263 124.95 176.307 125.166 176.307C125.381 176.306 125.595 176.261 125.792 176.175C125.99 176.088 126.167 175.961 126.313 175.803C126.46 175.644 126.572 175.458 126.642 175.254C126.713 175.05 126.741 174.834 126.724 174.619C126.688 174.223 126.51 173.854 126.224 173.578C125.937 173.303 125.561 173.14 125.164 173.119" fill="#3422F2"/>
<path d="M128.852 219.171C128.352 227.146 127.597 235.094 126.363 242.992C126.23 243.84 126.021 244.675 125.848 245.518C125.404 245.191 125.432 244.708 125.448 244.241C125.694 233.686 124.676 223.17 124.521 212.628C124.495 210.828 124.081 210.17 122.157 210.212C116.129 210.342 110.097 210.234 104.067 210.296C100.249 210.234 96.4378 209.971 92.648 209.506C87.6178 208.917 82.6756 207.731 77.926 205.973C77.3934 204.808 77.0556 203.563 76.926 202.289C87.102 205.516 97.477 204.644 107.853 203.799C112.143 203.449 116.462 203.813 120.747 203.223C123.846 202.861 126.916 202.281 129.934 201.488C131.122 201.151 131.463 200.681 131.322 199.332C130.663 193.049 130.184 186.747 129.66 180.45C129.343 176.643 129.06 172.833 128.76 169.025C128.698 168.757 128.693 168.48 128.744 168.21C128.796 167.94 128.904 167.684 129.06 167.458C131.009 175.425 132.714 183.444 134.176 191.515C134.527 193.766 134.394 196.067 133.784 198.262C133.454 199.572 132.912 201.062 131.705 201.54C128.847 202.673 129.132 204.881 129.136 207.222C129.144 211.205 128.959 215.188 128.855 219.171" fill="#DBDBDB"/>
<path d="M156.999 134.849C156.936 135.096 156.811 135.322 156.636 135.507C156.461 135.693 156.242 135.83 155.999 135.907L145.636 138.42L145.676 138.82H151.385C148.308 140.808 147.285 144.336 144.817 146.637C144.494 146.867 144.234 147.174 144.059 147.531C143.884 147.887 143.801 148.281 143.817 148.677C140.594 150.657 137.001 150.503 133.429 150.477C132.773 145.937 132.117 141.397 131.46 136.856C133.238 135.006 135.354 133.513 137.692 132.456C139.242 131.656 141.003 132.716 142.707 132.701C144.479 132.821 146.237 133.096 147.962 133.522C148.296 134.657 149.097 134.277 149.847 134.115C151.735 133.709 153.614 133.24 155.52 132.944C156.969 132.72 157.576 133.394 157.001 134.86" fill="#DBDBDB"/>
<path d="M128.629 162.243C122.859 163.497 117.179 165.172 111.275 165.789C106.486 166.289 101.707 166.889 96.922 167.43C93.142 167.861 89.352 168.219 85.583 168.73C83.7989 168.937 81.9914 168.796 80.261 168.315C78.9375 167.851 77.5629 167.549 76.167 167.415L74.057 165.067C75.18 163.996 76.277 165.144 77.394 165.14C83.027 165.118 88.587 164.249 94.184 163.829C97.838 163.555 101.484 163.283 105.133 162.88C110.47 162.292 115.472 160.495 120.533 158.923C123.371 158.042 126.219 157.247 129.121 156.628C128.969 158.501 129.45 160.428 128.629 162.243Z" fill="#6354FA"/>
<path d="M120.215 124.127C118.052 117.895 115.788 111.701 113.33 105.578C113.253 105.387 111.837 104.304 113.624 104.351C119.992 114.558 125.851 125.003 128.749 136.826L125.46 138.298L124.451 136.84L123.918 135.202C123.755 134.802 124.039 134.249 123.51 133.968L123.543 134.02C122.81 130.607 121.693 127.289 120.215 124.127Z" fill="#DBDBDB"/>
<path d="M125.456 138.304L128.745 136.832L131.459 136.848C132.115 141.389 132.771 145.929 133.427 150.469C133.327 151.119 133.634 151.869 132.942 152.369C130.61 150.198 129.163 147.369 127.307 144.839L125.455 138.307" fill="#FEFEFE"/>
<path d="M156.999 134.849C157.574 133.384 156.967 132.709 155.518 132.933C153.612 133.233 151.733 133.697 149.845 134.104C149.095 134.266 148.294 134.646 147.96 133.511C149.378 132.538 150.701 131.433 151.911 130.211C154.653 126.898 158.038 127.482 161.539 128.211C162.189 128.347 162.739 128.484 162.952 129.218C163.152 129.9 162.712 130.242 162.278 130.575C160.484 131.957 158.988 133.707 156.999 134.846" fill="#FE8C43"/>
<path d="M129.6 65.2598C127.68 65.2992 125.781 64.861 124.072 63.9846C122.364 63.1082 120.9 61.8211 119.812 60.2388C118.25 58.0448 117.079 58.8388 115.729 60.0938C114.187 61.5238 112.738 63.0538 111.248 64.5388C110.854 64.9318 110.448 65.2938 109.819 65.1228C110.145 64.0068 110.519 62.9028 110.784 61.7718C111.123 60.3008 111.776 59.4458 113.491 59.6818C114.93 59.8818 115.812 58.8508 116.424 57.7388C117.129 56.4588 117.917 56.3958 119.024 57.1728C120.49 58.1978 121.963 59.2208 123.495 60.1428C125.477 61.4079 127.793 62.0486 130.144 61.9818C130.127 62.7732 130.111 63.5648 130.094 64.3568L129.594 65.2568" fill="#DBDBDB"/>
<path d="M143.819 148.67C143.803 148.273 143.886 147.879 144.061 147.523C144.235 147.167 144.496 146.86 144.819 146.63C147.282 144.33 148.309 140.801 151.386 138.813H145.677L145.637 138.413L155.995 135.904C157.378 137.418 156.995 138.567 155.207 139.304C154.777 139.436 154.389 139.68 154.084 140.01C153.779 140.341 153.567 140.747 153.469 141.186C152.953 143.011 150.811 143.186 149.569 144.354C147.915 146.115 145.967 147.575 143.812 148.669" fill="#C9C9C9"/>
<path d="M127.308 144.836C129.164 147.363 130.608 150.196 132.943 152.367C133.043 152.789 133.32 153.24 132.523 153.317C131.407 153.426 130.298 153.617 129.186 153.774L127.308 144.836Z" fill="#D3DFDB"/>
<path d="M112.686 97.306H107.558C109.577 96.259 111.306 94.685 113.633 94.406L112.687 97.306" fill="#D3DFDB"/>
<path d="M77.921 205.973C82.6705 207.732 87.6127 208.918 92.643 209.507C96.4328 209.971 100.244 210.235 104.062 210.297C110.092 210.234 116.124 210.343 122.152 210.213C124.075 210.171 124.49 210.833 124.516 212.629C124.671 223.17 125.689 233.687 125.443 244.242C125.432 244.709 125.404 245.192 125.848 245.519C125.87 251.235 126.019 256.955 125.886 262.67C125.593 275.346 124.386 287.97 123.705 300.631C123.197 310.087 122.695 319.543 122.198 329C122.015 332.882 121.808 336.764 121.666 340.648C121.632 341.592 121.637 342.402 120.355 342.248L100.713 341.728C99.808 341.303 99.976 340.478 99.936 339.71C99.7483 336.366 99.3653 333.035 98.789 329.736C97.069 317.282 95.636 304.796 94.715 292.256C94.579 291.181 94.398 290.109 94.315 289.029C93.815 282.679 93.485 276.309 92.739 269.988C92.539 268.312 93.064 266.377 91.793 264.861C92.0908 264.135 92.1479 263.332 91.956 262.571C91.356 257.083 90.731 251.598 90.114 246.112C89.976 239.798 89.527 233.535 87.024 227.618C86.696 226.844 86.276 226.109 85.898 225.356C84.109 220.444 81.434 215.933 79.43 211.118L77.93 205.977" fill="#DBDBDB"/>
<path d="M47.311 316.354C46.223 319.954 45.369 323.585 45.778 327.395C45.8402 329.347 46.4729 331.239 47.598 332.836C47.945 333.354 48.2435 333.904 48.49 334.477C49.082 336.263 49.339 338.124 47.661 339.442C46.073 340.689 44.694 339.393 43.408 338.613C41.3267 337.206 39.6013 335.334 38.368 333.145C35.896 328.295 33.018 323.635 31.528 318.029C30.247 319.698 29.479 319.36 28.894 317.769C28.52 316.753 27.965 315.803 27.494 314.823C27.4988 314.511 27.4522 314.201 27.356 313.905C25.206 309.886 27.039 307.196 30.304 304.973C31.4211 309.922 33.0045 314.755 35.033 319.406C37.0001 323.793 39.5692 327.884 42.666 331.561C42.6785 331.033 42.5654 330.51 42.336 330.035C40.6862 326.238 39.7734 322.162 39.646 318.024C39.446 312.688 40.939 307.481 40.63 302.155C41.116 301.938 41.476 300.606 42.143 301.922C44.474 306.513 46.943 311.062 47.313 316.356" fill="black"/>
<path d="M121.148 344.582C122.297 345.233 123.502 345.804 124.586 346.551C128.257 349.078 132.415 349.81 136.739 350.019C139.181 350.137 140.444 351.4 140.359 353.899C138.001 353.629 135.716 354.334 133.375 354.406C121.796 354.763 110.336 353.991 99.075 351.078C99.0903 350.77 99.1056 350.462 99.1209 350.154C107.068 350.691 114.231 348.132 121.145 344.583" fill="black"/>
<path d="M121.148 344.581C114.235 348.13 107.071 350.689 99.124 350.152C99.07 347.232 99.054 344.32 100.711 341.722L120.354 342.242C120.375 343.084 120.652 343.899 121.148 344.58" fill="#E4E4E4"/>
<path d="M99.078 351.076C110.336 353.989 121.796 354.761 133.378 354.404C135.718 354.332 138.004 353.627 140.361 353.897C140.777 355.306 139.646 355.154 138.876 355.371C131.42 357.471 123.895 357.29 116.334 356.071C115.334 355.909 114.317 355.835 113.305 355.756C112.735 355.712 112.117 355.767 112.177 356.556C112.321 358.45 111.095 358.298 109.877 358.124C106.94 357.704 104.013 357.201 101.069 356.836C99.361 356.624 98.53 355.971 98.916 354.111C99.0497 353.106 99.1032 352.092 99.076 351.078" fill="black"/>
<path d="M45.4529 293.845C49.5589 290.967 53.7039 288.145 57.7629 285.2C64.6159 280.233 71.7709 275.724 78.8629 271.115C81.8739 269.732 84.5549 267.7 87.7109 266.602C87.7805 267.539 87.7694 268.479 87.6779 269.414C85.7712 280.286 81.8059 290.693 75.9949 300.077C75.1569 301.425 73.7819 302.531 73.6889 304.3C66.6383 307.972 59.5883 311.646 52.5389 315.322C50.8967 316.058 49.1086 316.411 47.3099 316.354C46.9359 311.06 44.4719 306.511 42.1409 301.92C41.4729 300.604 41.1129 301.936 40.6269 302.153L39.2269 299.303L45.4519 293.845" fill="#C9C9C9"/>
<path d="M39.2289 299.303L40.6289 302.153C40.9369 307.479 39.4489 312.687 39.6449 318.023C39.7727 322.161 40.6856 326.237 42.3349 330.035C42.5644 330.51 42.6775 331.033 42.6649 331.561C39.5676 327.884 36.9979 323.794 35.0299 319.408C33.0011 314.757 31.4174 309.925 30.2999 304.975C32.8269 302.375 35.2869 299.675 39.2289 299.306" fill="#E4E4E4"/>
<path d="M123.914 135.208L124.447 136.846C119.085 138.728 113.785 140.817 108.347 142.425C104.199 143.65 100.339 146.003 95.781 145.777C92.666 145.623 92.351 145.39 92.926 142.477C94.3451 135.533 95.1061 128.471 95.199 121.385C95.2316 117.679 94.8604 113.981 94.092 110.355C95.8064 113.033 96.8451 116.087 97.119 119.255C97.2931 122.523 97.9073 125.752 98.945 128.855C99.4688 130.33 100.424 131.613 101.686 132.539C102.948 133.464 104.459 133.989 106.023 134.045C110.745 134.278 115.413 132.948 119.303 130.261C119.98 129.863 120.533 129.286 120.903 128.594C122.003 130.294 122.19 132.446 123.542 134.029L123.509 133.977L123.917 135.211" fill="#6354FA"/>
<path d="M86.359 87.366C86.7757 86.1707 87.1923 84.9757 87.609 83.781C88.9281 85.7141 90.5581 87.4154 92.433 88.816C93.544 89.761 94.903 90.495 95.252 92.096L95.265 92.081C92.003 91.064 89.484 88.641 86.359 87.366Z" fill="#6354FA"/>
<path d="M123.539 134.025C122.187 132.442 121.999 130.294 120.899 128.59C120.362 127.117 119.824 125.644 119.285 124.17L120.212 124.13C121.69 127.292 122.806 130.611 123.539 134.024" fill="#BCD2AE"/>
<path d="M95.253 92.0961C95.4387 92.0728 95.6272 92.1048 95.7949 92.188C95.9626 92.2713 96.1021 92.402 96.196 92.5641L96.208 92.5521C96.0226 92.5683 95.8364 92.5329 95.6699 92.4498C95.5034 92.3667 95.3633 92.239 95.265 92.0811L95.252 92.0961" fill="#74140D"/>
<path d="M96.196 92.5649L96.388 92.6649L96.208 92.5549L96.196 92.5679" fill="#74140D"/>
<path d="M125.163 173.127C125.56 173.148 125.936 173.311 126.223 173.586C126.509 173.862 126.687 174.231 126.723 174.627C126.74 174.842 126.712 175.058 126.641 175.262C126.571 175.466 126.459 175.652 126.312 175.811C126.166 175.969 125.989 176.096 125.791 176.183C125.594 176.269 125.38 176.314 125.165 176.315C124.949 176.315 124.736 176.271 124.538 176.185C124.34 176.099 124.162 175.973 124.015 175.815C123.868 175.657 123.756 175.471 123.684 175.267C123.613 175.064 123.584 174.848 123.6 174.633C123.649 173.762 124.318 173.303 125.163 173.133" fill="#540B07"/>
<path d="M109.748 65.2119L109.38 65.6489L109.748 65.2119Z" fill="#BCD2AE"/>
<path d="M97.165 75.1049C94.186 75.8159 91.995 74.0049 91.092 70.0889C93.659 68.2189 94.056 65.4409 94.228 62.5749C94.5393 57.5431 96.122 52.6725 98.828 48.4189C100.771 45.3009 103.096 42.8189 107.287 43.1949C108.387 43.2949 109.387 42.3369 110.597 42.2149C114.368 41.826 118.168 42.6066 121.48 44.4509C123.48 45.5289 125.467 46.6269 127.514 47.6049C128.213 47.9688 128.985 48.1723 129.773 48.2007C130.56 48.2291 131.344 48.0816 132.068 47.7689C133.1 47.4273 134.223 47.4964 135.205 47.9621C136.187 48.4277 136.952 49.2539 137.34 50.2689C137.77 51.6036 137.866 53.0238 137.617 54.4039C136.79 58.5659 134.36 61.1489 130.152 61.9789C127.801 62.0454 125.484 61.4043 123.502 60.1389C121.971 59.2169 120.502 58.1939 119.031 57.1689C117.92 56.3919 117.131 56.4549 116.431 57.7349C115.819 58.8459 114.937 59.8749 113.498 59.6779C111.783 59.4419 111.131 60.2969 110.791 61.7679C110.53 62.8989 110.152 64.0029 109.826 65.1179L109.753 65.2079L109.386 65.6439C108.127 66.7439 106.622 66.5439 105.165 66.3659C103.905 66.2099 104.304 64.8809 103.831 64.1469C102.607 62.2469 100.531 62.0649 99.277 63.9469C98.5687 64.9341 98.1371 66.0926 98.0269 67.3026C97.9166 68.5126 98.1318 69.73 98.65 70.8289C98.991 71.6009 99.55 72.3189 98.97 73.2039L97.17 75.1039" fill="#3B3B3B"/>
<path d="M98.966 73.2068C99.543 72.3218 98.987 71.6068 98.646 70.8318C98.1275 69.733 97.9121 68.5156 98.0222 67.3056C98.1322 66.0956 98.5637 64.937 99.272 63.9498C100.526 62.0718 102.602 62.2568 103.826 64.1498C104.299 64.8828 103.9 66.2118 105.16 66.3688C106.617 66.5498 108.122 66.7428 109.38 65.6468L109.747 65.2098L109.82 65.1208C110.446 65.2918 110.854 64.9308 111.249 64.5368C112.739 63.0518 114.189 61.5218 115.73 60.0918C117.079 58.8398 118.251 58.0428 119.812 60.2358C120.9 61.8182 122.364 63.1055 124.072 63.982C125.781 64.8586 127.68 65.297 129.6 65.2578C129.229 68.381 128.483 71.4479 127.376 74.3918C127.115 75.1358 126.721 75.7918 127.285 76.5398C127.185 77.7918 128.419 79.2248 126.785 80.2698L121.897 78.9828L123.535 81.2248C122.522 84.5918 119.872 86.6168 117.363 88.7558C115.116 89.9348 113.063 88.2658 110.887 88.3238C110.57 87.8862 110.195 87.4936 109.772 87.1568C106.143 84.8808 103.097 81.7861 100.88 78.1208C99.914 76.6328 98.922 75.1088 98.971 73.2048M117.862 67.9948C120.32 67.8239 122.783 68.2461 125.043 69.2258C125.535 69.4518 126.102 69.7658 126.365 68.9548C126.424 68.829 126.454 68.6915 126.453 68.5524C126.452 68.4133 126.42 68.2763 126.359 68.1514C126.297 68.0266 126.209 67.9171 126.099 67.8312C125.99 67.7452 125.863 67.6849 125.727 67.6548C123.211 66.9308 120.678 65.8428 117.863 67.9918M121.863 70.2318C122.018 70.7428 123.146 70.5758 122.67 71.5658C122.318 72.2978 122.261 73.2328 123.429 73.2508C124.643 73.2698 124.393 71.9828 124.679 71.3108C125.159 70.1818 124.044 70.4728 123.479 70.3778C122.948 70.2888 122.405 70.2778 121.868 70.2318M117.359 82.0668C116.325 81.0668 115.79 79.6578 114.459 78.0188C114.951 80.2688 115.759 81.4508 117.359 82.0668ZM119.99 82.3798C119.025 82.2458 118.5 82.0068 117.877 82.3798C118.422 82.9238 118.933 83.0968 119.99 82.3798Z" fill="#DBDBDB"/>
<path d="M98.966 73.2059C98.917 75.1059 99.909 76.6339 100.876 78.1219C103.093 81.7871 106.139 84.8819 109.768 87.1579C110.191 87.4946 110.566 87.8872 110.883 88.3249C110.848 88.7735 110.815 89.2222 110.783 89.6709C109.744 90.0239 109.223 89.2369 108.578 88.6899C105.358 85.9659 102.244 83.0959 98.861 80.5899C96.761 79.0329 95.6 77.5989 97.171 75.1039L98.971 73.2039" fill="#DBDBDB"/>
<path d="M130.1 64.357C130.117 63.5656 130.133 62.7743 130.15 61.983C134.359 61.153 136.788 58.571 137.615 54.408C137.807 60.055 135.186 63.524 130.1 64.357Z" fill="#540B07"/>
<path d="M117.857 67.997C120.672 65.848 123.205 66.936 125.721 67.66C125.857 67.6901 125.984 67.7504 126.093 67.8364C126.203 67.9223 126.291 68.0318 126.353 68.1566C126.414 68.2815 126.446 68.4185 126.447 68.5576C126.448 68.6967 126.418 68.8342 126.359 68.96C126.096 69.771 125.529 69.46 125.037 69.231C122.776 68.2515 120.314 67.8293 117.856 68" fill="#3B3B3B"/>
<path d="M121.857 70.241C122.394 70.287 122.937 70.298 123.468 70.387C124.038 70.487 125.152 70.187 124.668 71.32C124.383 71.992 124.633 73.279 123.418 73.26C122.25 73.242 122.306 72.307 122.659 71.575C123.135 70.585 122.008 70.752 121.852 70.241" fill="#3B3B3B"/>
<path d="M126.78 80.2719C125.865 81.1619 124.459 80.3839 123.53 81.2269L121.892 78.9849L126.779 80.2719" fill="#C9C9C9"/>
<path d="M117.346 82.0729C115.753 81.4569 114.946 80.2729 114.446 78.0249C115.774 79.6629 116.309 81.0689 117.346 82.0729Z" fill="#C9C9C9"/>
<path d="M119.977 82.3858C118.92 83.1028 118.409 82.9288 117.864 82.3858C118.487 82.0138 119.012 82.2528 119.977 82.3858Z" fill="#C9C9C9"/>
<path d="M137.16 249.407C136.6 249.036 136.705 248.556 136.937 248.056C137.011 248.506 137.085 248.956 137.16 249.407Z" fill="#74140D"/>
<path d="M123.913 135.208L123.505 133.974C124.034 134.255 123.751 134.805 123.913 135.208Z" fill="#BCD2AE"/>
<path d="M73.689 304.301C73.781 302.531 75.157 301.425 75.995 300.078C81.8059 290.693 85.7709 280.285 87.677 269.413C87.7688 268.479 87.7795 267.538 87.709 266.602L90.057 265.323L91.789 264.857C93.059 266.374 92.536 268.308 92.734 269.985C93.48 276.306 93.807 282.675 94.311 289.025C94.396 290.105 94.578 291.177 94.711 292.252C91.1036 293.951 87.6457 295.95 84.374 298.23C83.0179 298.856 81.7598 299.676 80.639 300.663L73.687 304.3" fill="#C9C9C9"/>
</svg>
