<svg width="428" height="374" viewBox="0 0 428 374" fill="none" xmlns="http://www.w3.org/2000/svg">
<g clip-path="url(#clip0_90_1036)">
<path d="M230.134 318.276H147.346C146.078 318.276 144.862 317.772 143.966 316.876C143.07 315.979 142.566 314.764 142.566 313.496C142.566 312.228 143.07 311.012 143.966 310.116C144.862 309.219 146.078 308.716 147.346 308.716H230.134C231.402 308.716 232.617 309.219 233.514 310.116C234.41 311.012 234.914 312.228 234.914 313.496C234.914 314.764 234.41 315.979 233.514 316.876C232.617 317.772 231.402 318.276 230.134 318.276Z" fill="#C9C9C9"/>
<path d="M236.628 329.551L238.605 324.099C236.308 323.149 234.147 321.9 232.178 320.383C231.472 319.831 231.003 319.03 230.865 318.145C230.728 317.259 230.933 316.354 231.438 315.614L231.564 315.429C231.837 315.027 232.189 314.687 232.6 314.428C233.011 314.169 233.47 313.998 233.95 313.925C234.43 313.852 234.92 313.88 235.389 314.005C235.858 314.131 236.295 314.352 236.675 314.655C238.424 316.077 240.395 317.202 242.51 317.984C245.781 319.17 248.477 318.718 249.31 316.424C250.101 314.243 248.763 312.201 245.037 309.224C239.646 304.933 236.498 300.544 238.516 294.978C240.347 289.929 245.34 287.259 251.916 288.278L253.892 282.827L259.516 284.866L257.685 289.916C259.43 290.619 261.094 291.509 262.647 292.57C263.407 293.116 263.919 293.941 264.071 294.865C264.222 295.789 264.001 296.735 263.455 297.495C262.909 298.255 262.083 298.767 261.16 298.919C260.236 299.07 259.29 298.849 258.53 298.303C257.067 297.229 255.456 296.372 253.748 295.761C250.019 294.409 248.231 295.579 247.648 297.185C246.961 299.079 248.533 301.012 252.748 304.616C258.702 309.502 260.312 313.657 258.44 318.816C256.588 323.923 251.392 326.973 244.377 325.728L242.255 331.581L236.628 329.551Z" fill="white"/>
<path d="M166.899 345.803H69.6578C67.7973 345.803 66.013 345.064 64.6975 343.748C63.3819 342.433 62.6428 340.648 62.6428 338.788C62.6428 336.927 63.3819 335.143 64.6975 333.828C66.013 332.512 67.7973 331.773 69.6578 331.773H166.899C168.759 331.773 170.544 332.512 171.859 333.828C173.175 335.143 173.914 336.927 173.914 338.788C173.914 340.648 173.175 342.433 171.859 343.748C170.544 345.064 168.759 345.803 166.899 345.803" stroke="#D5D5D5"/>
<path d="M181.514 331.92H89.9708C88.1249 331.898 86.3622 331.149 85.0647 329.836C83.7672 328.523 83.0396 326.751 83.0396 324.905C83.0396 323.059 83.7672 321.288 85.0647 319.975C86.3622 318.662 88.1249 317.913 89.9708 317.891H181.514C182.442 317.88 183.363 318.053 184.224 318.401C185.085 318.748 185.868 319.263 186.528 319.916C187.188 320.568 187.713 321.345 188.071 322.202C188.428 323.058 188.613 323.977 188.613 324.905C188.613 325.834 188.428 326.753 188.071 327.609C187.713 328.466 187.188 329.243 186.528 329.895C185.868 330.548 185.085 331.063 184.224 331.41C183.363 331.758 182.442 331.931 181.514 331.92" stroke="#D5D5D5"/>
<path d="M168.473 317.886H80.9058C79.0877 317.886 77.3441 317.163 76.0586 315.878C74.773 314.592 74.0508 312.849 74.0508 311.031V310.707C74.0508 308.889 74.773 307.145 76.0586 305.859C77.3441 304.574 79.0877 303.852 80.9058 303.852H168.473C170.291 303.852 172.034 304.574 173.32 305.859C174.606 307.145 175.328 308.889 175.328 310.707V311.031C175.328 312.849 174.606 314.592 173.32 315.878C172.034 317.163 170.291 317.886 168.473 317.886Z" stroke="#D5D5D5"/>
<path d="M168.386 303.89H80.4089C78.6221 303.89 76.9085 303.18 75.6451 301.917C74.3817 300.653 73.6719 298.94 73.6719 297.153V296.598C73.6719 295.713 73.8461 294.837 74.1847 294.02C74.5233 293.202 75.0195 292.46 75.6451 291.834C76.2707 291.209 77.0134 290.712 77.8307 290.374C78.6481 290.035 79.5242 289.861 80.4089 289.861H168.386C169.271 289.861 170.147 290.035 170.964 290.374C171.781 290.712 172.524 291.209 173.15 291.834C173.775 292.46 174.272 293.202 174.61 294.02C174.949 294.837 175.123 295.713 175.123 296.598V297.153C175.123 298.94 174.413 300.653 173.15 301.917C171.886 303.18 170.173 303.89 168.386 303.89" stroke="#D5D5D5"/>
<path d="M171.284 290.686H82.5009C81.5726 290.697 80.6515 290.524 79.7907 290.176C78.93 289.829 78.1467 289.314 77.4864 288.661C76.8261 288.009 76.3019 287.232 75.9441 286.375C75.5863 285.519 75.4021 284.6 75.4021 283.671C75.4021 282.743 75.5863 281.824 75.9441 280.968C76.3019 280.111 76.8261 279.334 77.4864 278.682C78.1467 278.029 78.93 277.514 79.7907 277.167C80.6515 276.819 81.5726 276.646 82.5009 276.657H171.284C172.212 276.646 173.133 276.819 173.994 277.167C174.855 277.514 175.638 278.029 176.298 278.682C176.959 279.334 177.483 280.111 177.841 280.968C178.198 281.824 178.383 282.743 178.383 283.671C178.383 284.6 178.198 285.519 177.841 286.375C177.483 287.232 176.959 288.009 176.298 288.661C175.638 289.314 174.855 289.829 173.994 290.176C173.133 290.524 172.212 290.697 171.284 290.686" stroke="#D5D5D5"/>
<path d="M167.452 276.833H78.6688C77.7406 276.844 76.8194 276.671 75.9587 276.323C75.0979 275.976 74.3147 275.461 73.6544 274.808C72.9941 274.156 72.4699 273.379 72.1121 272.522C71.7543 271.666 71.5701 270.747 71.5701 269.818C71.5701 268.89 71.7543 267.971 72.1121 267.115C72.4699 266.258 72.9941 265.481 73.6544 264.829C74.3147 264.176 75.0979 263.661 75.9587 263.314C76.8194 262.966 77.7406 262.793 78.6688 262.804H167.452C168.38 262.793 169.301 262.966 170.162 263.314C171.023 263.661 171.806 264.176 172.466 264.829C173.127 265.481 173.651 266.258 174.009 267.115C174.366 267.971 174.551 268.89 174.551 269.818C174.551 270.747 174.366 271.666 174.009 272.522C173.651 273.379 173.127 274.156 172.466 274.808C171.806 275.461 171.023 275.976 170.162 276.323C169.301 276.671 168.38 276.844 167.452 276.833" stroke="#D5D5D5"/>
<path d="M171.9 249.731H86.8579C85.0343 249.731 83.2853 249.006 81.9958 247.717C80.7063 246.427 79.9819 244.678 79.9819 242.855V242.578C79.9819 240.754 80.7063 239.005 81.9958 237.716C83.2853 236.426 85.0343 235.702 86.8579 235.702H171.9C172.803 235.702 173.697 235.879 174.532 236.225C175.366 236.57 176.124 237.077 176.763 237.715C177.401 238.354 177.908 239.112 178.253 239.946C178.599 240.781 178.777 241.675 178.777 242.578V242.855C178.777 243.758 178.599 244.652 178.253 245.486C177.908 246.321 177.401 247.079 176.763 247.717C176.124 248.356 175.366 248.862 174.532 249.208C173.697 249.553 172.803 249.731 171.9 249.731" stroke="#D5D5D5"/>
<path d="M179.519 263.22H97.8188C96.0286 263.22 94.3117 262.509 93.0459 261.243C91.78 259.977 91.0688 258.26 91.0688 256.47V255.94C91.0688 254.15 91.78 252.433 93.0459 251.167C94.3117 249.901 96.0286 249.19 97.8188 249.19H179.519C181.309 249.19 183.026 249.901 184.292 251.167C185.558 252.433 186.269 254.15 186.269 255.94V256.47C186.269 258.26 185.558 259.977 184.292 261.243C183.026 262.509 181.309 263.22 179.519 263.22Z" stroke="#D5D5D5"/>
<path d="M80.9935 281.155C86.0185 285.79 89.5564 291.81 91.1598 298.455C92.7632 305.1 92.3601 312.071 90.0015 318.487C87.6429 324.903 83.4348 330.476 77.9092 334.5C72.3836 338.524 65.7887 340.82 58.9586 341.096C52.1284 341.372 45.3697 339.617 39.5372 336.052C33.7047 332.487 29.0603 327.272 26.1914 321.068C23.3224 314.863 22.3578 307.947 23.4194 301.194C24.481 294.442 27.5212 288.155 32.1555 283.13C38.3699 276.392 47.0066 272.399 56.1655 272.028C65.3244 271.658 74.2553 274.941 80.9935 281.155Z" fill="#3422F2"/>
<path d="M121.442 53.5879L116.66 54.0729L115.029 46.4649L107.949 46.3119L105.797 40.8179L103.016 41.9069L105.893 49.2549L112.602 49.3999L114.302 57.3149L121.502 56.5839L121.442 53.5879Z" fill="#C9C9C9"/>
<path d="M165.699 133.815C166.084 132.766 166.241 131.647 166.16 130.532C166.085 128.022 165.845 125.52 165.442 123.042C165.237 122.358 174.402 119.485 174.402 119.485C174.402 119.485 189.108 118.733 191.296 117.091C193.484 115.449 195.326 114.774 194.306 116.476C192.311 119.517 189.918 122.277 187.192 124.684C186.235 125.299 174.812 128.172 174.607 128.172C174.402 128.172 174.47 135.354 174.47 135.354L165.699 133.815Z" fill="#D9E0E8"/>
<path d="M175.243 130.755C175.243 130.755 165.721 129.137 165.543 130.088C161.695 151.155 161.043 158.118 160.618 158.336C159.169 159.081 138.444 140.893 135.018 139.703C133.348 139.252 131.61 139.108 129.888 139.279C125.814 139.399 127.188 139.302 125.04 139.407L124.858 139.42L124.88 143.252C129.47 147.382 139.98 209.935 140.863 209.893C141.852 209.847 162.621 215.074 162.254 213.324C162.195 213.04 148.173 201.566 144.197 185.007C142.862 179.448 142.203 173.463 141.48 168.224C146.094 170.538 164.118 179.408 166.974 178.236C175.86 174.59 175.233 130.751 175.233 130.751" fill="#949494"/>
<path d="M211.009 241.817C211.009 241.817 230.333 256.953 230.977 259.637C231.906 263.502 249.6 258.421 245.333 257.637C244.351 257.456 241.21 256.659 240.951 256.521C239.569 255.782 222.375 235.063 222.375 235.063L211.009 241.817Z" fill="#F7A491"/>
<path d="M253.631 257.638L241.294 256.638C241.294 256.638 237.768 259.557 230.994 259.694C230.324 261.865 230.13 264.156 230.426 266.409C230.515 267.034 230.619 268.92 231.249 268.877C233.529 268.722 239.602 267.211 246.521 265.827C246.521 265.827 255.821 263.858 261.192 260.644C266.563 257.43 253.636 257.644 253.636 257.644" fill="#184655"/>
<path d="M124.428 203.851C134.359 205.194 144.449 204.76 154.228 202.568C172.337 198.331 192.361 194.415 198.228 197.826C202.95 200.572 232.44 245.132 232.44 245.132L221.052 253.442L188.581 217.082C188.581 217.082 147.154 232.369 137.85 230.669C116.66 226.811 116.359 209.888 124.428 203.847" fill="#949494"/>
<path d="M139.899 194.86L154.06 211.686L127.795 219.686L124.432 203.849L139.899 194.86Z" fill="#D9E0E8"/>
<path d="M168.675 271.716C168.675 271.716 167.814 295.087 167.281 299.045C166.75 302.984 177.199 314.854 175.864 310.726C175.557 309.776 174.764 306.633 174.764 306.34C174.758 304.773 178.639 278.113 178.639 278.113L168.675 271.716Z" fill="#D9E0E8"/>
<path d="M179.803 318.026L174.825 306.693C174.825 306.693 170.581 304.977 167.241 299.078C165.012 299.52 162.904 300.437 161.062 301.768C160.555 302.143 157.099 304.668 157.339 305.253C158.225 307.399 162.932 311.996 168.077 317.017C172.128 320.28 176.359 323.313 180.751 326.1C186.13 329.3 179.802 318.025 179.802 318.025" fill="black"/>
<path d="M191.607 225.638C186.658 219.038 146.724 212.773 146.724 212.773L135.589 191.373L110.966 206.557C110.966 206.557 113.427 226.15 115.275 231.385C117.737 238.361 134.285 238.717 144.392 238.613C153.692 238.513 170.677 240.413 170.677 240.413L164.932 291.096C164.932 291.096 176.225 293.666 179.398 293.251C179.757 293.204 197.763 233.851 191.607 225.64" fill="#D9E0E8"/>
<path d="M125.005 139.458L111.112 140.219C111.112 140.219 110.794 140.331 110.698 140.349C109.566 140.559 110.598 181.043 111.604 196.164C112.61 211.285 114.66 217.637 114.66 217.637C114.66 217.637 133.501 214.292 139.283 212.047C141.683 211.116 147.491 203.855 147.491 203.855C143.228 197.499 140.201 190.397 138.569 182.92C136.264 172.927 133.421 155.211 131.794 151.513C128.057 143.021 125.005 139.458 125.005 139.458Z" fill="white"/>
<path d="M111.509 127.968L111.114 140.234C111.114 140.234 120.107 155.734 124.724 153.57C128.598 151.758 125.159 139.97 125.159 139.97C125.159 139.97 124.488 137.27 123.559 134.163C122.882 132.146 122.494 130.044 122.408 127.919C122.508 123.727 111.508 127.968 111.508 127.968" fill="#D9E0E8"/>
<path d="M122.249 99.9919C122.249 99.9919 126.832 106.9 127.174 112.714C127.414 116.001 127.114 119.305 126.285 122.495L111.582 104.918L122.249 99.9919Z" fill="#184655"/>
<path d="M128.699 111.522C128.906 113.558 128.115 115.306 126.932 115.422C125.749 115.538 124.622 113.991 124.414 111.955C124.206 109.919 124.998 108.171 126.181 108.055C127.364 107.939 128.492 109.487 128.699 111.522Z" fill="#949494"/>
<path d="M106.828 107.733C106.491 107.661 106.528 124.584 111.428 128.566C116.328 132.548 124.871 132.898 127.363 128.887C130.12 124.45 127.497 106.619 120.202 102.831C112.907 99.0428 106.827 107.731 106.827 107.731" fill="#D9E0E8"/>
<path d="M105.579 97.2389C101.834 100.522 100.022 102.921 97.4879 108.757C94.3729 115.934 100.553 123.37 105.736 126.325C110.919 129.28 111.358 132.908 111.358 132.908L111.564 130.651C111.722 129.327 111.441 127.987 110.764 126.838C110.323 125.895 108.906 122.664 108.353 121.811C106.895 119.562 106.607 119.075 107.327 116.938C107.881 115.292 107.24 111.665 108.097 108.953L115.073 107.453C115.073 107.453 119.439 106.404 121.643 103.86C127.973 96.5599 115.458 88.4139 105.583 97.2439" fill="black"/>
<path d="M108.983 118.789C109.842 120.646 109.664 122.557 108.583 123.056C107.502 123.555 105.932 122.456 105.073 120.598C104.214 118.74 104.392 116.83 105.473 116.331C106.554 115.832 108.124 116.931 108.983 118.789Z" fill="#949494"/>
<path d="M61.445 72.108C62.238 75.365 63.668 80.514 63.668 80.514C63.555 81.929 63.137 87.819 62.639 95.039L73.25 90.792C73.25 90.792 73.123 79.029 73.596 78.309C73.996 77.7 74.669 78.46 77.922 73.809C78.5608 72.6566 78.9412 71.3791 79.037 70.065C79.037 70.065 79.23 67.111 78.567 66.836C78.2545 66.7308 77.9147 66.7412 77.6092 66.8652C77.3037 66.9893 77.0528 67.2187 76.902 67.512C76.662 68.023 76.724 69.212 76.483 69.722C75.8407 70.3759 74.9772 70.7661 74.062 70.816C73.416 70.784 74.143 62.076 74.143 62.076C74.143 62.076 74.504 59.607 74.687 58.799C74.843 58.11 75.47 56.09 75.47 56.09C75.47 56.09 76.206 53.159 75.296 52.936C74.76 52.804 73.396 55.185 72.456 57.712C71.447 60.434 70.875 63.32 70.586 63.281C69.908 63.19 70.267 58.416 70.267 58.416C70.6013 57.3697 70.8219 56.2905 70.925 55.197C71.563 53.933 71.986 51.587 70.863 51.397C70.216 52.3273 69.6516 53.3124 69.176 54.341C69.176 54.341 68.594 56.441 68.255 57.42C67.655 59.15 67.567 61.881 67.255 63.085C66.995 64.085 66.761 63.675 66.655 63.717C66.6609 62.6302 66.737 61.5449 66.883 60.468C66.8765 59.4131 66.9571 58.3595 67.124 57.318C67.3561 56.2222 67.5078 55.1109 67.578 53.993C67.76 51.523 66.205 51.776 65.668 54.034C65.468 54.894 65.248 55.834 65.033 56.784C64.198 60.484 64.222 64.052 63.822 64.084C63.304 64.123 63.645 57.629 63.645 57.629C63.645 57.629 62.845 54.035 62.06 57.371C61.4946 59.7169 61.2232 62.124 61.252 64.537C61.336 65.482 60.652 68.861 61.445 72.118" fill="#D9E0E8"/>
<path d="M111.094 140.24C111.094 140.24 97.3398 139.592 93.7858 137.985C91.6318 137.01 73.9338 122.75 73.9338 122.75L74.1338 84.5688L61.6878 83.6218C61.6878 83.6218 55.2348 125.822 57.4698 130.444C59.7788 135.215 85.6828 154.854 90.8638 163.376C93.8488 168.286 100.073 235.058 101.015 235.659C107.715 239.147 128.415 242.631 127.929 240.515C114.455 182.035 111.095 140.24 111.095 140.24" fill="#949494"/>
<path d="M207.331 82.2548C207.331 89.1243 205.294 95.8396 201.477 101.552C197.661 107.263 192.236 111.715 185.89 114.344C179.543 116.973 172.56 117.662 165.822 116.322C159.084 114.982 152.895 111.674 148.038 106.817C143.18 101.96 139.871 95.7709 138.531 89.0335C137.19 82.296 137.877 75.3123 140.506 68.9654C143.134 62.6185 147.585 57.1935 153.297 53.3764C159.008 49.5593 165.723 47.5215 172.593 47.5208C177.154 47.5202 181.672 48.4183 185.886 50.1636C190.101 51.9089 193.93 54.4673 197.156 57.6927C200.382 60.9181 202.941 64.7473 204.686 68.9617C206.432 73.1761 207.331 77.6931 207.331 82.2548Z" fill="#3422F2"/>
<path d="M171.532 123.863C171.532 123.863 175.362 122.221 176.388 121.879C177.414 121.537 180.697 120.921 180.697 120.921C180.697 120.921 185.797 115.689 187.097 115.552C188.397 115.415 184.122 121.263 184.122 121.263L182.343 122.973C182.343 122.973 185.216 120.511 185.763 120.173C186.31 119.835 190.619 113.607 191.714 114.017C192.809 114.427 189.867 118.805 188.431 121.13C186.995 123.455 180.431 124.892 180.431 124.892L171.532 123.863Z" fill="#D9E0E8"/>
<path d="M217.309 140.761C217.301 141.787 194.041 142.07 189.22 162.696L186.12 161.677C193.028 140.71 216.059 141.554 217.187 140.783C217.195 140.777 217.202 140.77 217.208 140.762L217.309 140.761Z" fill="#C9C9C9"/>
<path d="M231.508 85.8302L235.117 86.287C235.117 86.287 240.157 83.5012 240.476 82.3023C240.795 81.1033 240.425 78.4145 241.176 78.1932C241.769 77.9955 242.417 78.0416 242.977 78.3213C243.536 78.6011 243.962 79.0917 244.16 79.6852C244.673 80.9566 243.48 85.1514 243.864 85.4985C245.107 85.8803 246.387 86.1327 247.683 86.2517C248.173 86.3227 248.634 86.5277 249.015 86.844C249.397 87.1603 249.683 87.5756 249.843 88.0443C249.954 88.3601 249.954 88.7039 249.844 89.0199C249.734 89.3358 249.521 89.6054 249.238 89.7847L248.336 90.3513L248.843 91.298C249.024 91.6377 249.066 92.0346 248.96 92.4048C248.854 92.7749 248.608 93.0892 248.274 93.281L247.568 93.681L247.929 94.2476C248.038 94.4207 248.111 94.6147 248.142 94.8172C248.172 95.0198 248.161 95.2265 248.108 95.4244C248.055 95.6223 247.961 95.807 247.833 95.9668C247.705 96.1267 247.545 96.2583 247.363 96.3532L246.742 96.6777L246.804 96.8491C246.927 97.1922 246.92 97.5688 246.783 97.9067C246.646 98.2447 246.389 98.5202 246.061 98.6804L245.44 98.9794L235.83 97.7537C234.928 97.6385 234.06 97.3371 233.281 96.8687L229.971 95.8688C229.798 95.8153 229.649 95.7011 229.552 95.5472C229.456 95.3932 229.417 95.2097 229.445 95.0299L230.669 86.4813C230.695 86.2843 230.798 86.1056 230.955 85.9838C231.112 85.862 231.311 85.8068 231.508 85.8302Z" fill="#D9E0E8"/>
<path d="M187.822 74.8918C187.75 74.7783 187.656 74.6807 187.545 74.605C187.435 74.5293 187.309 74.4771 187.178 74.4515L181.911 73.2357C181.976 71.5544 181.652 69.8809 180.964 68.3453L188.14 70.002C188.27 70.0376 188.405 70.0459 188.538 70.0264C188.671 70.007 188.799 69.9602 188.913 69.889C189.027 69.8178 189.124 69.7237 189.2 69.6128C189.276 69.5018 189.328 69.3764 189.353 69.2444L190.078 66.102C190.114 65.9723 190.122 65.8366 190.103 65.7035C190.084 65.5704 190.037 65.4427 189.965 65.3287C189.894 65.2146 189.8 65.1165 189.689 65.0407C189.578 64.9649 189.452 64.913 189.32 64.8883L163.694 58.9721C163.564 58.9367 163.429 58.9285 163.296 58.948C163.163 58.9675 163.036 59.0144 162.922 59.0855C162.808 59.1567 162.71 59.2507 162.634 59.3615C162.558 59.4724 162.506 59.5978 162.481 59.7298L161.537 63.8221C161.48 64.0831 161.528 64.3557 161.669 64.5821C161.811 64.8085 162.035 64.9708 162.294 65.0346L166.76 66.0656C171.092 67.0657 173.575 68.861 174.21 71.4516L161.491 68.5151C161.361 68.4797 161.226 68.4715 161.093 68.491C160.96 68.5105 160.833 68.5573 160.719 68.6285C160.605 68.6997 160.507 68.7937 160.431 68.9045C160.355 69.0154 160.303 69.1408 160.278 69.2727L159.553 72.4151C159.517 72.5446 159.509 72.6801 159.529 72.813C159.548 72.9459 159.595 73.0733 159.666 73.1872C159.737 73.3011 159.831 73.399 159.942 73.4748C160.053 73.5506 160.178 73.6026 160.31 73.6276L173.464 76.6644C173.052 77.4449 172.477 78.128 171.779 78.6676C171.08 79.2072 170.274 79.5908 169.415 79.7927C167.15 80.2883 164.799 80.2245 162.564 79.6068L159.115 78.8105C158.854 78.7542 158.581 78.8019 158.355 78.9433C158.129 79.0848 157.966 79.3089 157.902 79.5682L156.999 83.4802C156.967 83.6061 156.961 83.7373 156.981 83.8657C157.002 83.994 157.048 84.1167 157.118 84.2262C160.094 89.3248 163.853 96.3677 168.397 105.355C168.457 105.495 168.551 105.618 168.671 105.714C168.79 105.809 168.931 105.874 169.081 105.902L175.087 107.288C175.272 107.346 175.471 107.343 175.654 107.28C175.838 107.218 175.997 107.099 176.109 106.94C176.248 106.801 176.336 106.619 176.357 106.423C176.379 106.227 176.333 106.03 176.227 105.864C171.93 97.1243 168.489 90.5312 165.902 86.0848C169.07 86.5472 172.303 86.0508 175.186 84.6596C177.777 83.3284 179.784 81.0874 180.824 78.3666L185.999 79.5613C186.129 79.5967 186.264 79.605 186.397 79.5855C186.53 79.566 186.657 79.5192 186.771 79.448C186.885 79.3769 186.983 79.2829 187.059 79.1721C187.135 79.0612 187.187 78.9359 187.212 78.8039L187.937 75.6645C187.972 75.5347 187.979 75.3991 187.96 75.2662C187.94 75.1333 187.893 75.0059 187.822 74.8918Z" fill="white"/>
<path d="M63.6181 289.627C63.312 289.296 62.9001 289.083 62.4535 289.024C62.0069 288.964 61.5537 289.063 61.1721 289.303C60.922 289.469 60.6305 289.562 60.3303 289.573C60.0301 289.583 59.733 289.509 59.4721 289.361C59.0888 289.125 58.6476 289 58.1976 289C57.7476 289 57.3064 289.125 56.9231 289.361C56.6622 289.509 56.3651 289.583 56.0649 289.573C55.7647 289.562 55.4732 289.469 55.2231 289.303C54.8415 289.063 54.3883 288.964 53.9417 289.024C53.4951 289.083 53.0832 289.296 52.7771 289.627C51.6341 290.632 51.2061 292.295 52.5901 294.65C53.5791 296.333 54.9071 297.371 56.0021 297.459C56.5911 298.196 59.8141 298.196 60.4021 297.459C61.4971 297.371 62.8251 296.333 63.8141 294.65C65.1881 292.295 64.7601 290.632 63.6181 289.627Z" fill="white"/>
<path d="M62.544 299.815H53.844C53.844 299.815 44 311.587 44 316.362C43.998 318.354 44.7456 320.274 46.094 321.739C47.4425 323.205 49.2931 324.11 51.278 324.273H65.107C67.0919 324.11 68.9425 323.205 70.291 321.739C71.6394 320.274 72.387 318.354 72.385 316.362C72.385 311.587 62.544 299.815 62.544 299.815Z" fill="white"/>
<path d="M51.709 298.281C51.709 298.687 51.8706 299.078 52.1583 299.365C52.446 299.653 52.8361 299.815 53.243 299.815H63.143C63.55 299.815 63.9403 299.653 64.228 299.365C64.5158 299.077 64.6775 298.687 64.6775 298.28C64.6775 297.873 64.5158 297.483 64.228 297.195C63.9403 296.907 63.55 296.746 63.143 296.746H53.243C53.0415 296.746 52.8419 296.785 52.6557 296.862C52.4695 296.94 52.3004 297.053 52.1579 297.195C52.0155 297.338 51.9025 297.507 51.8255 297.693C51.7484 297.879 51.7089 298.079 51.709 298.281Z" fill="white"/>
<path d="M54.6441 309.443C54.6441 309.52 54.6593 309.596 54.6887 309.667C54.7182 309.738 54.7613 309.803 54.8157 309.857C54.8701 309.911 54.9347 309.955 55.0058 309.984C55.0769 310.013 55.1531 310.029 55.2301 310.029H58.9171C58.7948 310.382 58.5654 310.69 58.2609 310.907C57.9563 311.125 57.5916 311.243 57.2171 311.245H55.9991C55.8189 311.244 55.6423 311.295 55.4897 311.391C55.337 311.486 55.2144 311.623 55.1361 311.785C55.0577 311.948 55.0268 312.129 55.0468 312.308C55.0668 312.487 55.1369 312.657 55.2491 312.798L58.8291 317.305C58.9259 317.426 59.0671 317.505 59.2216 317.522C59.3762 317.54 59.5314 317.495 59.6531 317.399C59.7748 317.302 59.8531 317.161 59.8708 317.006C59.8884 316.852 59.8439 316.696 59.7471 316.575L56.4471 312.417H57.2181C57.9047 312.415 58.5696 312.176 59.1007 311.741C59.6317 311.306 59.9964 310.7 60.1331 310.028H61.1611C61.3167 310.028 61.4658 309.966 61.5758 309.856C61.6858 309.746 61.7476 309.597 61.7476 309.441C61.7476 309.286 61.6858 309.136 61.5758 309.026C61.4658 308.916 61.3167 308.855 61.1611 308.855H60.1441C60.066 308.414 59.8858 307.997 59.6181 307.639H61.1571C61.3127 307.639 61.4618 307.577 61.5718 307.467C61.6818 307.357 61.7436 307.208 61.7436 307.052C61.7436 306.897 61.6818 306.747 61.5718 306.637C61.4618 306.527 61.3127 306.466 61.1571 306.466H55.2281C55.0726 306.466 54.9234 306.527 54.8134 306.637C54.7034 306.747 54.6416 306.897 54.6416 307.052C54.6416 307.208 54.7034 307.357 54.8134 307.467C54.9234 307.577 55.0726 307.639 55.2281 307.639H57.2871C57.6561 307.639 58.0153 307.757 58.3125 307.976C58.6096 308.194 58.8292 308.502 58.9391 308.855H55.2291C55.1521 308.855 55.0758 308.87 55.0047 308.9C54.9336 308.929 54.869 308.973 54.8147 309.027C54.7603 309.082 54.7173 309.147 54.688 309.218C54.6588 309.289 54.6438 309.366 54.6441 309.443Z" fill="black"/>
<path d="M472.418 88.0049C472.428 89.2049 472.445 90.4139 472.445 91.6179C472.45 175.109 472.454 258.599 472.457 342.089C472.093 342.179 471.723 342.239 471.35 342.268C461.206 342.276 451.062 342.276 440.918 342.268C440.541 342.248 440.165 342.206 439.792 342.144C442.64 341.231 444.492 339.161 446.037 336.744C452.687 336.767 459.337 336.779 465.987 336.825C466.887 336.831 467.204 336.517 467.199 335.615C467.147 327.508 467.116 319.4 467.106 311.291C467.106 310.476 466.924 310.018 465.958 309.977C461.593 309.791 457.231 309.69 452.865 309.901C452.752 309.696 452.701 309.463 452.719 309.229C452.737 308.996 452.822 308.773 452.965 308.588C457.403 308.617 461.843 308.579 466.278 308.712C467.868 308.76 468.289 308.294 468.284 306.712C468.225 289.337 468.244 271.962 468.241 254.587C468.224 254.038 468.208 253.49 468.192 252.941C468.18 251.316 468.168 249.69 468.156 248.064C468.182 242.761 468.208 237.459 468.233 232.157C468.224 231.604 468.214 231.052 468.204 230.499C468.218 212.274 468.232 194.048 468.245 175.823L468.238 173.865C468.233 172.09 468.228 170.314 468.223 168.539C468.2 156.555 468.178 144.571 468.157 132.587C468.193 131.904 468.229 131.22 468.264 130.537C468.25 121.556 468.204 112.575 468.256 103.594C468.264 102.161 467.867 101.794 466.45 101.794C457.531 101.847 448.612 101.761 439.693 101.815C436.917 101.677 434.135 101.746 431.369 102.022C430.882 101.422 430.259 101.622 429.652 101.736C428.766 101.754 427.879 101.787 426.993 101.787C404.302 101.787 381.611 101.787 358.92 101.787C358.35 101.787 357.776 101.826 357.209 101.787C356.201 101.712 355.897 102.171 355.93 103.138C355.999 105.164 355.975 107.193 355.989 109.22C355.73 109.679 355.591 110.197 355.586 110.724C355.582 111.251 355.711 111.771 355.963 112.235C355.958 132.471 355.954 152.707 355.952 172.943C355.952 173.383 356.015 173.823 356.052 174.263C356.005 177.269 355.959 180.275 355.913 183.281L351.737 183.355C351.737 156.04 351.734 128.726 351.728 101.412C351.728 100.593 351.648 99.7739 351.605 98.9539C351.644 98.3249 351.713 97.6959 351.717 97.0669C351.756 91.0179 354.825 87.9299 360.831 87.9259C367.862 87.9259 374.893 87.9339 381.924 87.9259C391.166 87.9059 400.41 87.8799 409.656 87.8479C410.356 87.8749 411.046 87.9249 411.741 87.9249C431.208 87.9289 450.674 87.9312 470.141 87.9319C470.9 87.9319 471.659 87.9799 472.418 88.0049ZM399.718 94.3759V94.3669C394.268 94.3669 388.818 94.3599 383.37 94.3759C382.742 94.3514 382.114 94.4266 381.509 94.5989C381.322 94.6442 381.145 94.7271 380.991 94.8424C380.837 94.9577 380.707 95.103 380.61 95.2698C380.514 95.4365 380.452 95.6211 380.428 95.8124C380.405 96.0037 380.42 96.1978 380.474 96.3829C380.503 96.5887 380.575 96.786 380.686 96.9619C380.797 97.1378 380.943 97.2882 381.117 97.4034C381.29 97.5185 381.485 97.5957 381.69 97.6299C381.895 97.6641 382.105 97.6546 382.306 97.6019C382.989 97.4845 383.682 97.4279 384.375 97.4329C394.323 97.4262 404.271 97.4286 414.22 97.4399C414.789 97.4089 415.361 97.4492 415.92 97.5599C417.232 97.8999 418.504 97.8599 418.75 96.3129C419.037 94.5029 417.65 94.3639 416.262 94.3689C410.749 94.3889 405.236 94.3769 399.724 94.3769M434.685 97.4209C437.085 97.4209 439.495 97.3879 441.899 97.4359C442.979 97.4569 443.709 96.9779 443.748 95.9809C443.791 94.8809 443.072 94.3399 441.894 94.3479C437.149 94.3806 432.403 94.3806 427.656 94.3479C426.574 94.3399 425.849 94.8049 425.807 95.8009C425.76 96.9119 426.49 97.4549 427.662 97.4359C430.003 97.3959 432.344 97.4239 434.686 97.4229" fill="#C9C9C9"/>
<path d="M351.109 183.325C350.309 185.378 348.745 186.084 346.631 186.079C334.617 186.051 322.603 186.079 310.589 186.047C309.461 185.982 308.338 185.85 307.226 185.652C305.547 183.702 305.541 181.634 306.504 179.316C307.45 177.04 308.087 174.638 308.911 172.309C309.673 170.157 310.756 169.389 313.041 169.385C322.807 169.371 332.573 169.385 342.341 169.37C343.137 169.314 343.931 169.498 344.621 169.898C345.311 170.298 345.865 170.896 346.211 171.615C347.727 174.541 349.24 177.469 350.75 180.398C351.005 180.836 351.168 181.321 351.23 181.824C351.292 182.327 351.251 182.837 351.11 183.324M330.162 181.424C329.362 178.792 328.606 176.583 328.038 174.324C327.733 173.111 326.977 173.166 326.058 173.135C325.116 173.103 324.537 173.299 324.283 174.346C323.82 176.252 323.183 178.114 322.677 180.011C322.554 180.475 322.026 181.22 322.899 181.426C323.626 181.597 324.634 181.867 324.82 180.591C324.935 179.809 325.382 179.577 326.138 179.568C326.294 179.546 326.454 179.557 326.606 179.599C326.758 179.641 326.9 179.714 327.022 179.814C327.145 179.914 327.246 180.037 327.319 180.178C327.391 180.318 327.434 180.471 327.445 180.629C327.467 180.848 327.561 181.054 327.712 181.214C327.863 181.374 328.063 181.48 328.28 181.515C329.364 181.859 330.535 181.799 331.579 181.347C332.622 180.896 333.467 180.082 333.958 179.056C334.541 180.748 335.258 182.197 337.632 181.179C335.379 178.679 334.882 176.019 337.475 173.526C335.291 172.352 334.656 173.919 333.867 175.297C333.641 174.896 333.436 174.483 333.253 174.061C333.176 173.832 333.046 173.624 332.875 173.453C332.703 173.283 332.494 173.155 332.264 173.079C332.035 173.004 331.79 172.983 331.551 173.018C331.312 173.054 331.084 173.144 330.886 173.283C330.035 173.735 330.948 174.513 331.273 174.952C331.851 175.58 332.17 176.404 332.165 177.257C332.16 178.111 331.832 178.931 331.246 179.552C330.845 180.152 330.483 180.777 330.162 181.423M319.556 173.159C318.798 173.159 318.04 173.17 317.283 173.159C316.652 173.146 316.165 173.237 316.149 174.047C316.135 174.759 316.385 175.147 317.129 175.054C318.216 174.915 318.379 175.513 318.346 176.411C318.298 177.736 318.362 179.064 318.326 180.389C318.304 181.173 318.551 181.519 319.397 181.533C320.297 181.548 320.647 181.248 320.608 180.333C320.554 179.072 320.627 177.806 320.585 176.545C320.555 175.627 320.601 174.882 321.844 175.045C322.605 175.145 322.811 174.706 322.797 174.013C322.78 173.183 322.254 173.143 321.642 173.152C320.947 173.162 320.253 173.152 319.558 173.152M338.518 177.292C338.518 178.24 338.551 179.192 338.508 180.134C338.468 181.014 338.608 181.558 339.713 181.534C340.72 181.509 340.822 181.009 340.813 180.217C340.786 178.322 340.781 176.427 340.813 174.532C340.83 173.65 340.695 173.106 339.599 173.132C338.587 173.151 338.479 173.666 338.506 174.457C338.538 175.403 338.514 176.352 338.516 177.299" fill="#C9C9C9"/>
<path d="M196.936 258.783C197.704 252.147 200.279 246.46 205.618 242.216C206.305 241.671 206.947 241.069 207.609 240.494C208.77 240.081 209.662 239.105 210.926 238.915C212.065 238.788 213.216 238.999 214.235 239.521C215.255 240.043 216.098 240.854 216.66 241.853C217.503 243.175 218.523 244.383 219.46 245.642C219.47 245.808 219.479 245.973 219.488 246.142C219.429 246.636 219.37 247.13 219.311 247.624C218.09 246.749 217.554 245.353 216.722 244.186C214.59 241.196 212.014 240.098 209.322 241.241C207.823 241.9 206.424 242.766 205.166 243.814C204.159 244.631 204.091 245.276 205.101 246.214C208.49 249.315 212.167 252.085 216.082 254.487C217.008 255.065 218.221 255.326 218.702 256.501C218.661 258.786 218.619 261.072 218.577 263.358C215.109 263.594 211.642 264.005 208.177 264.021C204.255 264.04 200.077 264.512 197.311 260.654L197.323 260.665C197.262 260.301 197.202 259.937 197.142 259.574L196.942 258.788" fill="#D3DFDB"/>
<path d="M231.115 221.507L224.34 227.849C223.114 228.703 222.028 229.743 221.121 230.93C220.398 230.989 220.065 231.564 219.658 232.04C218.713 232.311 217.958 231.687 217.119 231.485C216.619 231.366 216.493 231.051 216.519 230.496C216.872 224.116 224.341 219.042 230.871 220.781C231.26 220.881 231.309 221.173 231.111 221.507" fill="black"/>
<path d="M219.658 232.04C220.065 231.564 220.397 230.989 221.121 230.93C220.71 234.615 220.298 238.3 219.887 241.985C219.595 243.185 220.022 244.472 219.463 245.641C218.523 244.381 217.503 243.173 216.663 241.851C216.101 240.852 215.257 240.041 214.238 239.519C213.218 238.997 212.067 238.786 210.928 238.913C214.649 237.648 217.189 234.889 219.66 232.039" fill="#CDCDCD"/>
<path d="M190.091 324.186C189.759 321.623 188.874 319.137 189.014 316.508C189.914 318.38 190.795 320.265 191.738 322.117C192.258 323.137 195.369 324.16 196.391 323.762C197.068 323.498 196.901 322.938 196.875 322.48C196.899 321.091 197.218 319.724 197.812 318.469C199.284 314.549 201.691 311.031 202.177 306.669C202.6 302.869 203.744 299.151 204.57 295.397C204.925 294.457 205.285 293.52 205.634 292.578C208.212 285.63 211.615 279.322 218.61 275.788C219.924 275.63 221.204 275.259 222.398 274.688C230.416 271.609 238.46 268.605 246.753 266.325C251.411 266.559 255.928 267.125 258.899 271.402C259.016 271.55 259.15 271.685 259.299 271.802C265.654 277.394 272.877 279.302 281.064 276.784C286.575 275.09 291.198 271.759 295.838 268.484C298.151 266.851 300.627 265.755 303.562 266.313C314.524 268.3 325.142 271.323 334.813 277.036C338.55 279.244 342.013 281.913 344.048 285.854C348.469 294.418 352.442 303.174 354.132 312.772L355.816 325.584L351.49 325.71C340.282 325.946 329.074 326.21 317.865 326.387C317.315 326.338 316.764 326.467 316.293 326.755C315.823 327.043 315.457 327.475 315.251 327.987C313.971 330.474 312.182 332.665 310.001 334.417C303.901 339.34 296.282 339.167 290.409 333.98C288.491 332.312 286.898 330.304 285.709 328.058C285.53 327.632 285.217 327.276 284.817 327.044C284.418 326.813 283.953 326.718 283.495 326.774C269.368 326.763 255.238 326.981 241.116 326.457C239.846 326.41 239.534 327.029 239.193 328.001C237.396 333.369 234.339 338.229 230.278 342.173C221.419 350.629 209.097 350.594 200.242 342.116C196.424 338.38 193.494 333.835 191.666 328.816C191.082 327.293 190.608 325.728 190.084 324.182M232.421 326.436C230.51 326.176 228.579 326.096 226.653 326.195C223.936 326.05 221.212 325.977 218.503 325.736C216.661 325.572 216.488 326.236 217.071 327.766C217.629 329.381 218.339 330.94 219.193 332.421C221.993 336.946 224.893 337.426 228.917 334.051C229.384 335.138 229.853 336.224 230.325 337.311C230.467 337.641 230.446 338.111 230.925 338.173C231.504 338.245 231.595 337.707 231.83 337.36C233.215 335.183 234.29 332.823 235.024 330.349C236.291 326.506 236.292 326.507 232.418 326.436M294.347 319.228C303.502 319.415 313.736 318.838 323.975 318.458C325.867 318.425 327.755 318.278 329.629 318.017C336.422 316.932 343.017 314.961 349.706 313.403C350.668 313.179 351.175 312.826 350.889 311.563C350.169 308.428 349.254 305.341 348.15 302.32C346.362 297.391 344.243 292.589 341.807 287.947C339.277 283.106 334.828 280.192 330.112 277.777C321.892 273.568 313.035 271.297 304.064 269.34C300.934 268.657 298.292 268.64 295.574 270.784C291.77 273.937 287.504 276.488 282.926 278.347C278.88 280.027 274.431 280.489 270.126 279.675C264.782 278.56 260.554 275.585 256.871 271.692C256.226 271.01 255.691 270.075 254.746 269.843C251.946 269.157 249.152 268.373 246.246 269.477C244.537 270.125 242.737 270.533 241.011 271.143C234.103 273.586 227.211 276.084 220.303 278.511C219.877 278.614 219.505 278.875 219.263 279.24C219.02 279.606 218.926 280.05 218.997 280.483C219.055 285.474 219.709 290.419 220.236 295.363C220.944 301.996 222.394 308.523 223.609 315.083C223.958 316.965 225.018 317.509 226.66 317.708C231.433 318.288 236.241 318.059 241.03 318.408C247.083 318.846 253.165 318.451 259.247 318.755C267.204 319.155 275.194 318.774 283.168 319.201C286.519 319.381 289.888 319.231 294.347 319.231" fill="black"/>
<path d="M401.635 342.042C401.035 342.496 400.406 342.92 399.835 343.407C392.6 349.544 383.373 349.532 376.17 343.367C375.69 342.957 375.211 342.546 374.733 342.133C373.159 340.44 371.718 338.628 370.422 336.713C368.295 333.186 366.672 329.378 365.6 325.401C371.34 325.214 377.08 325.001 382.822 324.858C383.447 324.921 384.077 324.813 384.645 324.547C385.214 324.28 385.699 323.865 386.051 323.345C386.468 323.738 386.736 324.263 386.809 324.831C387.4 327.556 388.49 330.148 390.024 332.477C392.708 336.303 395.104 338.472 400.154 336.357C400.945 337.848 401.598 339.407 402.105 341.017L401.639 342.041" fill="black"/>
<path d="M446.037 336.742C444.488 339.158 442.637 341.228 439.792 342.142C438.878 342.375 437.921 342.375 437.008 342.142C434.117 341.266 432.328 339.102 430.703 336.742C428.798 333.252 427.332 329.539 426.339 325.689L425.885 324.079L425.275 320.879C426.975 320.7 428.675 320.564 430.364 320.333C433.498 319.904 436.958 320.433 439.064 317.233C439.771 317.927 439.625 318.6 439.727 319.21C440.11 322.288 440.918 325.298 442.127 328.155C442.61 329.181 443.155 330.32 444.518 330.301C445.881 330.282 446.439 329.134 446.867 328.101C447.528 326.595 448.051 325.033 448.431 323.434C450.732 312.192 450.957 300.624 449.094 289.301C448.622 286.215 448.177 283.027 446.161 280.407C446.511 278.703 447.271 277.111 448.377 275.769C448.407 276.083 448.465 276.395 448.551 276.699C451.204 283.854 452.594 291.416 452.657 299.047C452.665 299.599 452.524 300.205 453.067 300.624C453.044 303.024 453.022 305.421 453 307.816L452.967 308.577C452.824 308.762 452.738 308.985 452.721 309.218C452.703 309.452 452.754 309.685 452.867 309.89C452.783 310.772 452.699 311.654 452.616 312.536C451.809 320.979 450.251 329.217 446.04 336.736" fill="black"/>
<path d="M430.702 336.747C432.327 339.103 434.116 341.266 437.007 342.147C435.054 342.191 433.101 342.27 431.148 342.273C421.989 342.286 412.83 342.286 403.67 342.273C402.985 342.4 402.277 342.323 401.635 342.05L402.101 341.025C403.601 339.868 404.478 338.191 405.638 336.751H430.702" fill="#C9C9C9"/>
<path d="M370.419 336.714C371.715 338.628 373.157 340.44 374.73 342.134C369.501 342.424 364.26 342.435 359.03 342.166C354.716 341.936 351.89 338.548 351.73 334.185C351.63 331.36 352.03 328.521 351.489 325.71L355.816 325.586C355.887 325.602 355.953 325.634 356.009 325.68C355.976 328.949 355.932 332.217 355.92 335.486C355.92 335.995 355.687 336.696 356.576 336.786C357.496 336.881 357.527 336.265 357.597 335.591C357.944 332.28 358.324 328.973 358.697 325.664L359.791 325.658C359.491 328.997 359.222 332.34 358.858 335.673C358.766 336.511 358.912 336.832 359.78 336.82C363.326 336.768 366.873 336.747 370.419 336.715" fill="#C9C9C9"/>
<path d="M468.241 175.816C468.227 194.041 468.213 212.267 468.2 230.492L440.143 230.547C440.124 219.832 440.074 209.116 440.106 198.401C440.147 196.69 439.827 194.989 439.165 193.41C438.504 191.83 437.517 190.409 436.269 189.237C426.557 179.672 416.939 170.013 407.232 160.443C406.762 160.095 406.44 159.583 406.332 159.008C406.223 158.433 406.336 157.838 406.647 157.343C411.22 147.312 415.742 137.258 420.214 127.181C420.714 126.049 421.141 126.034 422.153 126.533C429.258 130.033 436.386 133.487 443.536 136.896C444.758 137.477 444.876 138.026 444.362 139.214C442.475 143.575 440.697 147.983 438.904 152.384C438.691 152.907 438.056 153.615 438.933 154.017C439.962 154.489 440.023 153.428 440.257 152.872C442.078 148.551 443.857 144.214 445.651 139.88C446.867 136.939 446.818 136.868 443.957 135.486C436.938 132.096 429.942 128.66 422.908 125.301C421.734 124.74 421.49 124.214 422.081 123.008C423.473 120.163 424.761 117.265 425.992 114.346C426.462 113.23 426.959 113.165 427.986 113.655C440.114 119.429 452.259 125.168 464.421 130.873C465.635 131.44 465.613 131.987 465.194 133.021C463.765 136.544 462.407 140.096 461.023 143.637C459.616 147.237 458.213 150.837 456.814 154.437C456.629 154.916 456.1 155.499 456.931 155.885C457.88 156.325 457.931 155.469 458.193 154.942C458.304 154.716 458.373 154.468 458.465 154.232C461.141 147.387 463.818 140.542 466.495 133.697C466.79 132.943 466.954 131.997 468.153 132.576C468.175 144.56 468.197 156.544 468.218 168.528C468.221 170.303 468.226 172.079 468.233 173.854C467.61 173.926 466.988 174.048 466.364 174.061C461.364 174.161 456.364 174.233 451.364 174.335C450.794 174.347 449.933 174.068 449.941 175.079C449.949 176.09 450.816 175.792 451.377 175.788C454.607 175.769 457.837 175.66 461.066 175.683C463.459 175.7 465.866 175.31 468.245 175.812" fill="#FEFEFE"/>
<path d="M355.986 109.216C355.972 107.188 355.995 105.159 355.926 103.133C355.893 102.166 356.197 101.708 357.205 101.782C357.772 101.824 358.346 101.782 358.916 101.782C381.607 101.782 404.298 101.782 426.989 101.782C427.875 101.782 428.762 101.749 429.648 101.731C430.018 102.58 429.369 103.19 429.079 103.839C421.084 121.706 413.074 139.565 405.051 157.417C404.635 158.341 403.907 159.089 402.995 159.53C399.087 161.63 395.181 163.73 391.347 165.956C390.104 166.678 389.524 166.669 388.747 165.325C381.314 152.427 373.837 139.554 366.316 126.706C362.903 120.858 359.43 115.045 355.984 109.216" fill="#FEFEFE"/>
<path d="M356.045 174.261C356.012 173.821 355.945 173.381 355.945 172.941C355.945 152.705 355.949 132.469 355.956 112.233C356.098 112.349 356.289 112.433 356.375 112.584C366.826 130.523 377.278 148.462 387.731 166.399C388.323 167.412 387.997 167.804 387.108 168.274C384.534 169.633 382.003 171.074 379.444 172.466C373.667 175.605 367.887 178.739 362.103 181.866C360.343 179.125 358.63 176.344 356.042 174.266" fill="#FEFEFE"/>
<path d="M431.366 102.018C434.132 101.742 436.914 101.673 439.69 101.811C448.608 101.757 457.528 101.843 466.447 101.79C467.864 101.782 468.261 102.152 468.253 103.585C468.2 112.566 468.247 121.547 468.261 130.529C467.592 130.994 467.048 130.508 466.51 130.255C453.928 124.314 441.363 118.338 428.761 112.442C427.416 111.813 427.361 111.242 427.92 110.009C429.236 107.421 430.387 104.753 431.366 102.02" fill="#FEFEFE"/>
<path d="M431.367 102.018C430.39 104.751 429.24 107.419 427.925 110.007C427.367 111.236 427.425 111.807 428.766 112.44C441.366 118.34 453.933 124.313 466.515 130.253C467.053 130.507 467.597 130.992 468.266 130.527C468.23 131.21 468.194 131.893 468.159 132.577C466.959 131.995 466.796 132.945 466.501 133.698L458.471 154.233C458.379 154.469 458.31 154.716 458.199 154.943C457.941 155.47 457.887 156.327 456.937 155.886C456.106 155.5 456.637 154.917 456.82 154.438C458.211 150.832 459.614 147.232 461.029 143.638C462.413 140.097 463.771 136.545 465.2 133.022C465.619 131.988 465.641 131.442 464.428 130.875C452.255 125.186 440.108 119.447 427.987 113.657C426.959 113.168 426.463 113.233 425.992 114.348C424.761 117.267 423.473 120.165 422.081 123.01C421.49 124.217 421.734 124.743 422.908 125.304C429.942 128.662 436.938 132.099 443.957 135.489C446.818 136.871 446.867 136.942 445.651 139.883C443.86 144.216 442.078 148.554 440.257 152.875C440.023 153.431 439.962 154.491 438.933 154.02C438.057 153.62 438.691 152.911 438.904 152.387C440.697 147.987 442.475 143.578 444.362 139.217C444.876 138.029 444.762 137.48 443.536 136.899C436.383 133.499 429.255 130.045 422.154 126.537C421.142 126.037 420.717 126.053 420.215 127.185C415.741 137.261 411.219 147.315 406.648 157.347C406.337 157.842 406.224 158.437 406.333 159.011C406.441 159.586 406.763 160.099 407.233 160.447C416.94 170.017 426.558 179.676 436.27 189.241C437.518 190.412 438.505 191.834 439.166 193.413C439.827 194.992 440.147 196.693 440.106 198.404C440.074 209.119 440.125 219.835 440.143 230.551L440.043 230.628L438.938 228.684L438.568 227.215C438.582 217.215 438.614 207.215 438.598 197.215C438.585 196.039 438.334 194.877 437.861 193.8C437.387 192.723 436.701 191.753 435.844 190.948C432.988 188.076 430.076 185.259 427.26 182.348C426.24 181.294 425.826 181.395 425.23 182.731C423.247 187.178 421.145 191.572 419.088 195.986L417.988 194.898C419.994 190.593 421.949 186.263 424.035 181.998C424.404 181.466 424.551 180.811 424.447 180.173C424.342 179.534 423.993 178.961 423.473 178.575C417.699 172.963 411.991 167.29 406.349 161.557C406.176 161.305 405.952 161.092 405.693 160.931C405.434 160.77 405.144 160.663 404.842 160.618C404.54 160.574 404.232 160.591 403.937 160.67C403.642 160.75 403.367 160.889 403.128 161.079C393.397 166.514 383.622 171.869 373.851 177.232C370.362 179.147 370.351 179.126 370.986 183L369.537 183.033C369.426 181.985 369.137 180.963 368.685 180.011L363.434 183.038C362.345 183.038 361.289 183.604 360.178 183.227L362.107 181.867C367.888 178.733 373.668 175.6 379.448 172.467C382.007 171.077 384.537 169.634 387.112 168.275C388.001 167.805 388.327 167.413 387.735 166.4C377.268 148.472 366.817 130.533 356.38 112.585C356.294 112.437 356.103 112.349 355.961 112.233C355.71 111.769 355.58 111.249 355.585 110.722C355.59 110.194 355.728 109.677 355.988 109.218C359.434 115.047 362.907 120.86 366.321 126.708C373.824 139.565 381.301 152.438 388.751 165.327C389.526 166.672 390.106 166.68 391.351 165.958C395.186 163.733 399.092 161.628 402.999 159.532C403.911 159.091 404.639 158.343 405.055 157.419C413.06 139.557 421.069 121.698 429.083 103.841C429.373 103.193 430.022 102.582 429.652 101.733C430.259 101.618 430.882 101.416 431.369 102.02" fill="#CBCBCB"/>
<path d="M399.717 94.3767C405.23 94.3767 410.743 94.3887 416.255 94.3687C417.643 94.3687 419.03 94.5027 418.743 96.3127C418.498 97.8587 417.226 97.8997 415.913 97.5597C415.354 97.4494 414.783 97.4091 414.213 97.4397C404.265 97.4304 394.317 97.4281 384.368 97.4327C383.675 97.4276 382.982 97.4842 382.299 97.6017C382.098 97.6544 381.888 97.664 381.683 97.6298C381.478 97.5955 381.283 97.5183 381.11 97.4032C380.937 97.288 380.79 97.1375 380.68 96.9617C380.569 96.7858 380.497 96.5885 380.468 96.3827C380.415 96.1973 380.399 96.003 380.423 95.8116C380.447 95.6201 380.51 95.4354 380.607 95.2688C380.704 95.1021 380.834 94.9569 380.989 94.8419C381.144 94.7269 381.32 94.6445 381.508 94.5997C382.113 94.4275 382.741 94.3522 383.369 94.3767C388.818 94.3607 394.269 94.3677 399.717 94.3677V94.3767Z" fill="#CBCBCB"/>
<path d="M434.678 97.4208C432.336 97.4208 429.995 97.3938 427.654 97.4328C426.482 97.4528 425.754 96.9088 425.799 95.7978C425.842 94.7978 426.566 94.3368 427.648 94.3448C432.393 94.3815 437.139 94.3815 441.886 94.3448C443.065 94.3368 443.786 94.8748 443.74 95.9778C443.701 96.9778 442.971 97.4548 441.891 97.4328C439.491 97.3848 437.082 97.4178 434.677 97.4188" fill="#CBCBCB"/>
<path d="M362.106 181.861L360.177 183.221L355.906 183.276C355.951 180.269 355.998 177.263 356.045 174.257C358.634 176.339 360.345 179.119 362.106 181.857" fill="#D3DFDB"/>
<path d="M303.564 266.313C300.629 265.756 298.152 266.852 295.84 268.485C291.2 271.762 286.577 275.092 281.065 276.785C272.878 279.302 265.655 277.396 259.3 271.803C259.151 271.686 259.017 271.552 258.9 271.403C255.929 267.129 251.412 266.56 246.754 266.326C243.068 265.141 239.225 264.514 235.354 264.468C234.678 263.799 233.454 264.368 232.915 263.391L225.853 252.269C229.204 252.147 232.559 252.194 235.905 252.409C243.818 252.674 251.728 253.034 259.649 252.938C261.346 252.911 262.994 252.368 264.376 251.383C272.716 245.849 281.208 246.377 289.618 251.26C290.968 252.058 292.521 252.448 294.088 252.385C307.517 252.157 320.947 251.972 334.378 251.829C336.323 251.809 338.264 251.19 340.211 251.762C335.564 255.327 331.866 259.98 329.442 265.312C328.265 265.153 327.072 265.173 325.901 265.372C325.608 265.257 325.302 265.18 324.99 265.143C319.929 265.199 314.859 265.133 309.81 265.413C307.739 265.528 305.495 265.013 303.566 266.313" fill="white"/>
<path d="M384.775 226.675C357.68 226.678 330.585 226.682 303.49 226.688C303.238 226.688 302.99 226.73 302.735 226.753L300.835 226.785H298.935C293.504 226.763 288.073 226.702 282.643 226.728C274.876 226.766 267.109 226.868 259.343 226.942L255.92 227.042L243.373 227.248L238.061 227.321C235.247 226.033 234.553 223.848 236.534 221.828C245.866 212.317 255.505 203.154 266.561 195.605C271.106 192.341 276.516 190.494 282.108 190.298C292.808 189.982 303.499 189.198 314.2 188.77C333.71 187.98 353.226 187.393 372.756 187.746C377.317 187.829 381.872 188.168 386.432 188.314C386.798 188.277 387.167 188.32 387.514 188.442C387.861 188.564 388.176 188.761 388.439 189.019C388.701 189.277 388.903 189.589 389.03 189.934C389.157 190.279 389.207 190.648 389.176 191.014C389.276 193.926 389.376 196.845 389.296 199.756C389.114 206.721 389.011 213.703 387.551 220.556C387.078 222.776 386.609 225.048 384.779 226.677M340.403 223.284C340.908 223.299 341.414 223.327 341.919 223.327C353.938 223.347 365.958 223.365 377.978 223.383C381.46 223.389 381.989 223.016 383.042 219.696C383.195 219.215 383.334 218.727 383.442 218.234C384.657 212.154 385.169 205.954 384.97 199.757C384.982 197.804 385.008 195.851 385.001 193.898C385.051 193.551 385.021 193.198 384.915 192.865C384.81 192.531 384.63 192.226 384.39 191.971C384.149 191.717 383.855 191.52 383.528 191.395C383.201 191.27 382.85 191.22 382.501 191.25C375.444 190.901 368.388 190.603 361.32 190.763C349.62 190.563 337.929 190.929 326.238 191.263C319.416 191.463 312.587 191.492 305.782 192.102C298.488 192.075 291.226 192.848 283.945 193.002C279.106 193.107 274.962 194.867 270.959 197.284C260.921 203.346 252.09 210.951 243.424 218.771C242.4 219.695 241.437 220.654 242.164 222.195C242.877 223.707 244.158 224.006 245.675 223.712C246.116 223.733 246.559 223.776 247 223.771C258.6 223.642 270.2 223.511 281.8 223.379C289.659 223.3 297.519 223.263 305.379 223.206C305.819 223.236 306.258 223.295 306.697 223.294C317.435 223.268 328.173 223.239 338.911 223.207L340.032 223.257L340.402 223.278" fill="#A4A4A4"/>
<path d="M370.984 182.995C370.349 179.121 370.36 179.142 373.849 177.227C383.62 171.863 393.395 166.508 403.126 161.073C403.365 160.883 403.64 160.744 403.935 160.665C404.23 160.586 404.538 160.568 404.84 160.613C405.142 160.658 405.432 160.764 405.691 160.926C405.95 161.087 406.173 161.3 406.347 161.551C411.99 167.284 417.697 172.957 423.467 178.568C423.985 178.955 424.334 179.528 424.439 180.166C424.544 180.804 424.397 181.458 424.03 181.991C421.943 186.256 419.989 190.591 417.983 194.891C414.665 192.073 411.059 189.615 407.224 187.556C402.537 185.198 397.449 183.743 392.224 183.267C392.05 183.096 391.875 182.773 391.704 182.776C389.921 182.805 388.29 182.698 388.186 180.308C388.173 179.993 387.738 179.915 387.402 179.979C387.307 179.983 387.213 180.007 387.128 180.05C387.043 180.093 386.968 180.154 386.909 180.228C386.849 180.303 386.806 180.389 386.782 180.481C386.759 180.574 386.755 180.67 386.772 180.764C386.879 181.573 387.025 182.377 387.156 183.183L370.986 182.993" fill="#FEFEFE"/>
<path d="M329.44 265.313C331.864 259.981 335.562 255.327 340.209 251.762C344.415 248.601 349.205 246.304 354.303 245.004C360.487 243.433 366.565 241.474 372.503 239.14C377.721 237.069 380.508 237.648 384.422 241.657C385.11 243.059 385.415 244.618 385.307 246.176C384.711 248.045 384.342 249.979 384.207 251.937C383.827 253.071 383.46 254.21 383.065 255.337C381.876 258.737 379.722 261.037 376.065 261.856C373.596 262.406 371.147 263.023 368.642 263.405C355.971 265.337 343.111 264.505 330.414 266.038C329.853 266.105 329.382 266.066 329.435 265.312M340.883 254.489C341.388 255.116 341.942 254.936 342.402 254.904C345.923 254.659 349.474 254.584 352.956 254.06C362.796 252.408 372.445 249.769 381.756 246.182C382.917 245.758 383.256 245.311 382.183 244.42C379.526 242.205 376.56 241.291 373.183 242.42C371.147 243.102 369.157 243.92 367.147 244.68C361.523 246.803 355.647 248.097 349.941 249.951C346.709 250.997 343.653 252.526 340.879 254.486" fill="#D3DFDB"/>
<path d="M425.655 236.133C422.615 236.986 419.431 236.882 416.361 237.539C411.42 237.311 406.461 237.601 401.532 237.119C400.836 235.637 400.308 234.082 399.958 232.483C402.437 233.409 404.82 232.583 407.203 232.04C407.932 231.874 407.827 231.367 407.323 230.94C407.396 230.314 407.334 229.679 407.139 229.079C406.695 226.85 406.509 224.577 406.583 222.305C406.557 221.961 406.6 221.616 406.709 221.288C406.818 220.961 406.99 220.658 407.216 220.398C407.442 220.138 407.718 219.925 408.027 219.772C408.336 219.618 408.672 219.528 409.016 219.505C412.001 218.958 415.007 218.683 418.016 218.405L419.016 218.312C423.263 218.954 427.381 219.912 430.601 223.06C431.908 225.579 433.368 228.047 433.289 231.034C433.262 232.396 432.168 232.945 431.263 233.587C429.635 234.683 427.818 235.469 425.905 235.907C425.842 235.906 425.78 235.929 425.734 235.972C425.687 236.014 425.658 236.073 425.652 236.136" fill="black"/>
<path d="M419.085 195.982C421.142 191.568 423.244 187.174 425.227 182.727C425.827 181.391 426.237 181.29 427.256 182.344C430.072 185.254 432.984 188.071 435.84 190.944C436.697 191.749 437.383 192.719 437.857 193.796C438.33 194.873 438.581 196.035 438.594 197.211C438.61 207.211 438.578 217.211 438.564 227.211C435.76 220.854 432.578 214.671 429.036 208.694C428.508 207.77 427.891 206.899 427.195 206.094C427.207 205.712 427.103 205.335 426.896 205.013C426.689 204.692 426.389 204.441 426.036 204.294L426.053 204.318C425.951 203.765 425.725 203.244 425.392 202.791C425.059 202.339 424.627 201.968 424.13 201.707L419.084 195.976" fill="#FEFEFE"/>
<path d="M407.324 230.937C407.829 231.367 407.934 231.874 407.205 232.037C404.822 232.581 402.438 233.405 399.959 232.48C398.122 226.992 397.289 221.288 396.359 215.608C395.231 208.731 394.485 201.808 393.789 194.872C393.611 193.486 393.644 192.081 393.889 190.706C394.626 187.106 396.872 185.546 400.502 186.191C402.366 186.563 404.174 187.171 405.885 187.999C414.823 192.089 421.128 198.92 426.091 207.199C429.506 212.76 432.45 218.598 434.891 224.651C435.077 225.045 435.291 225.425 435.532 225.789C435.495 227.122 436.106 228.32 436.326 229.599L433.288 231.026C433.368 228.039 431.908 225.571 430.601 223.051C427.942 210.812 421.186 201.375 410.932 194.341C410.387 193.967 409.761 193.295 409.093 193.941C408.522 194.494 409.055 195.12 409.381 195.641C413.769 202.693 416.381 210.5 419.015 218.297L418.015 218.39C415.018 209.045 410.734 200.163 405.286 192.001C404.99 191.486 404.551 191.068 404.023 190.797C403.494 190.527 402.897 190.417 402.307 190.48C398.89 190.614 397.669 191.559 397.05 194.944C396.214 199.514 396.899 204.014 397.826 208.493C399.126 214.749 400.433 221 403.136 226.847C404.006 228.73 405.111 230.401 407.319 230.925" fill="#A4A4A4"/>
<path d="M225.852 252.269C228.205 255.976 230.56 259.683 232.915 263.389C228.175 263.425 223.434 263.462 218.692 263.5L218.58 263.353C218.621 261.067 218.663 258.781 218.704 256.495L219.092 256.451C222.831 257.903 226.202 260.205 230.392 261.483L228.177 257.649C226.012 253.904 222.77 251.231 219.33 248.749C219.325 248.371 219.319 247.993 219.314 247.615C219.373 247.121 219.432 246.627 219.491 246.133C221.289 248.302 223.314 250.273 225.532 252.012L225.88 252.292L225.852 252.269Z" fill="#D3DFDB"/>
<path d="M401.535 237.119C406.468 237.602 411.424 237.311 416.364 237.539C415.164 238.763 413.335 238.844 411.964 239.092C409.083 239.611 406.241 240.714 403.231 240.46C402.546 239.412 401.979 238.291 401.54 237.119" fill="#74140D"/>
<path d="M363.433 183.033L368.684 180.006C369.136 180.958 369.424 181.98 369.535 183.028C367.505 183.196 365.465 183.196 363.435 183.028" fill="#F2F4F3"/>
<path d="M387.153 183.185C387.023 182.379 386.876 181.575 386.769 180.766C386.752 180.672 386.756 180.576 386.78 180.483C386.803 180.391 386.846 180.305 386.906 180.231C386.966 180.156 387.041 180.095 387.126 180.052C387.211 180.009 387.304 179.985 387.399 179.981C387.735 179.917 388.169 179.995 388.183 180.31C388.283 182.701 389.918 182.81 391.701 182.778C391.872 182.778 392.048 183.098 392.221 183.269C390.54 183.536 388.825 183.508 387.153 183.185Z" fill="#C9C9C9"/>
<path d="M424.131 201.71C424.628 201.971 425.059 202.342 425.392 202.794C425.725 203.247 425.952 203.769 426.054 204.321C425.154 203.675 424.481 202.761 424.131 201.71Z" fill="#60723E"/>
<path d="M426.037 204.299C426.39 204.446 426.689 204.697 426.896 205.019C427.103 205.34 427.207 205.717 427.195 206.099C426.608 205.655 426.198 205.017 426.037 204.299Z" fill="#60723E"/>
<path d="M225.881 252.296L225.533 252.016L225.881 252.296Z" fill="#74140D"/>
<path d="M218.61 275.785C211.61 279.319 208.21 285.627 205.634 292.575C205.285 293.517 204.925 294.454 204.57 295.393C203.483 295.339 203.681 296.327 203.493 296.867C202.118 301.291 199.347 305.151 195.593 307.867C193.302 309.467 190.61 309.82 188.002 310.453C188.083 301.16 188.854 291.886 190.31 282.708C191.477 275.959 192.928 269.298 196.288 263.218C197.05 261.837 196.188 260.185 196.941 258.784C197.008 259.047 197.074 259.309 197.141 259.57C196.954 259.97 196.869 260.362 197.321 260.662L197.309 260.651C197.119 262.803 198.264 264.081 200.103 264.892C202.036 265.678 204.119 266.025 206.203 265.91C210.351 265.81 214.494 265.51 218.639 265.291C218.63 268.789 218.622 272.289 218.613 275.791" fill="#CDCDCD"/>
<path d="M188.007 310.454C190.615 309.821 193.307 309.472 195.598 307.868C199.352 305.152 202.123 301.292 203.498 296.868C203.686 296.328 203.488 295.34 204.574 295.394C203.749 299.149 202.604 302.868 202.181 306.667C201.695 311.032 199.288 314.55 197.816 318.467C197.222 319.722 196.903 321.09 196.879 322.478C196.904 322.937 197.072 323.497 196.395 323.76C195.373 324.16 192.262 323.135 191.742 322.115C190.798 320.264 189.922 318.378 189.018 316.506C188.662 314.491 187.918 312.541 188.012 310.453" fill="#CDCDCD"/>
<path d="M219.315 247.619C219.32 247.997 219.326 248.375 219.331 248.754C218.731 251.303 219.078 253.882 219.091 256.454L218.704 256.499C218.223 255.323 217.011 255.063 216.084 254.485C212.168 252.083 208.491 249.313 205.103 246.212C204.093 245.275 204.161 244.629 205.168 243.812C206.426 242.764 207.826 241.898 209.325 241.239C212.017 240.096 214.594 241.194 216.725 244.184C217.557 245.352 218.093 246.747 219.314 247.623" fill="#FEFEFE"/>
<path d="M197.321 260.659C196.869 260.359 196.954 259.972 197.141 259.568C197.201 259.932 197.261 260.296 197.321 260.659Z" fill="#74140D"/>
<path d="M294.357 319.233C289.898 319.233 286.53 319.383 283.178 319.203C275.205 318.775 267.215 319.155 259.257 318.757C253.175 318.457 247.093 318.848 241.04 318.41C236.251 318.063 231.44 318.293 226.67 317.71C225.029 317.51 223.97 316.966 223.62 315.085C222.404 308.526 220.955 301.998 220.247 295.365C219.72 290.422 219.066 285.476 219.008 280.485C218.937 280.052 219.032 279.608 219.274 279.243C219.516 278.877 219.888 278.617 220.314 278.514C227.227 276.086 234.114 273.588 241.022 271.145C242.748 270.535 244.548 270.127 246.257 269.479C249.165 268.379 251.963 269.16 254.757 269.846C255.702 270.078 256.237 271.013 256.882 271.695C260.564 275.587 264.792 278.562 270.137 279.678C274.442 280.492 278.891 280.031 282.937 278.351C287.515 276.492 291.781 273.941 295.585 270.787C298.303 268.644 300.945 268.661 304.075 269.344C313.046 271.301 321.903 273.572 330.123 277.781C334.839 280.196 339.288 283.109 341.823 287.95C344.259 292.593 346.378 297.395 348.166 302.324C349.27 305.345 350.185 308.431 350.906 311.566C351.191 312.83 350.685 313.182 349.722 313.406C343.034 314.965 336.439 316.935 329.645 318.02C327.771 318.281 325.883 318.428 323.991 318.461C313.752 318.841 303.518 319.418 294.363 319.231M241.107 283.879L241.14 283.869C240.558 283.836 240.249 284.178 239.94 284.627C237.96 287.474 237.34 290.49 238.825 293.737C239.479 295.333 240.603 296.693 242.047 297.636C243.492 298.58 245.188 299.062 246.913 299.019C264.956 299.115 283 299.115 301.044 299.019C303.487 299.007 305.903 298.314 307.355 295.954C308.34 295.246 309.052 294.223 309.373 293.054C309.844 291.718 309.988 290.289 309.791 288.887C309.595 287.484 309.064 286.149 308.244 284.995C307.424 283.84 306.339 282.899 305.079 282.252C303.82 281.604 302.423 281.269 301.007 281.274C283.007 281.193 265.007 281.196 247.007 281.283C245.007 281.29 242.945 281.646 241.537 283.416L241.11 283.88" fill="white"/>
<path d="M354.135 312.772C369.129 313.097 381.143 307.061 390.647 295.667C390.63 296.196 390.613 296.726 390.596 297.255C389.754 301.647 389.377 306.116 389.471 310.587C389.49 313.106 389.626 315.632 388.713 318.055L386.048 323.346C385.696 323.866 385.211 324.282 384.642 324.548C384.074 324.815 383.444 324.922 382.819 324.86C377.077 325.003 371.338 325.216 365.598 325.403C363.659 325.232 361.707 325.318 359.791 325.659L358.697 325.666C357.797 325.236 356.908 325.687 356.013 325.68C355.957 325.634 355.891 325.602 355.82 325.586C355.258 321.315 354.697 317.044 354.136 312.773" fill="#CDCDCD"/>
<path d="M218.61 275.785C218.619 272.286 218.627 268.786 218.636 265.285L218.725 265.211C222.682 265.211 226.641 265.271 230.597 265.179C232.211 265.205 233.818 264.963 235.353 264.464C239.224 264.511 243.067 265.137 246.753 266.322C238.461 268.603 230.417 271.606 222.398 274.685C221.204 275.256 219.924 275.627 218.61 275.785Z" fill="#CDCDCD"/>
<path d="M228.924 334.056C228.924 333.929 228.922 333.802 228.919 333.675C230.919 331.665 231.704 329.069 232.428 326.441C236.302 326.511 236.301 326.511 235.034 330.354C234.3 332.828 233.225 335.188 231.84 337.365C231.605 337.712 231.515 338.25 230.94 338.178C230.46 338.119 230.481 337.646 230.34 337.316C229.873 336.229 229.404 335.143 228.932 334.056" fill="black"/>
<path d="M405.639 336.744C404.479 338.184 403.604 339.862 402.102 341.018C401.596 339.408 400.943 337.848 400.152 336.358C400.154 336.242 400.149 336.126 400.139 336.011C402.665 334.702 403.907 332.311 404.99 329.911C408.35 322.444 409.001 314.521 408.375 306.489C407.946 300.978 406.796 295.589 403.958 290.72C403.002 289.08 401.985 287.464 400.158 286.62C400.143 286.47 400.127 286.32 400.113 286.17C400.761 285.49 400.721 284.559 401.022 283.754C401.243 283.163 401.111 282.188 402.022 282.12C402.698 282.07 403.014 282.799 403.422 283.261C404.922 284.955 405.702 287.153 407.293 288.782C407.499 289.439 407.654 290.117 407.918 290.75C410.797 297.641 412.259 305.042 412.218 312.51C412.118 315.784 411.787 319.047 411.228 322.274C411.171 322.661 411.114 323.048 411.058 323.435C410.941 323.894 410.825 324.354 410.709 324.813C409.498 328.979 407.795 332.985 405.637 336.749" fill="black"/>
<path d="M359.791 325.658C361.707 325.317 363.66 325.231 365.598 325.402C366.669 329.379 368.292 333.187 370.419 336.715C366.873 336.747 363.326 336.768 359.78 336.82C358.913 336.833 358.767 336.512 358.858 335.674C359.222 332.341 359.489 328.998 359.791 325.659" fill="#F1F1F1"/>
<path d="M351.73 183.351L355.906 183.278L360.177 183.222C361.288 183.6 362.344 183.034 363.433 183.034C365.463 183.202 367.503 183.202 369.533 183.034L370.982 183.001L387.152 183.191C388.824 183.514 390.539 183.542 392.22 183.274C397.445 183.751 402.533 185.206 407.22 187.564C411.055 189.622 414.661 192.081 417.978 194.899L419.078 195.987L424.124 201.718C424.474 202.769 425.147 203.683 426.047 204.329L426.03 204.305C426.191 205.023 426.601 205.661 427.188 206.105C427.885 206.91 428.501 207.781 429.03 208.705C432.572 214.682 435.754 220.866 438.558 227.223C438.681 227.712 438.805 228.202 438.928 228.692C438.228 228.784 437.582 229.219 436.834 229.069C436.284 228.028 436.934 226.509 435.534 225.808C435.293 225.445 435.079 225.065 434.893 224.671C432.452 218.618 429.508 212.78 426.093 207.219C421.131 198.936 414.825 192.105 405.887 188.019C404.174 187.191 402.364 186.584 400.498 186.212C396.868 185.567 394.622 187.131 393.885 190.727C393.64 192.102 393.606 193.507 393.785 194.892C394.485 201.824 395.226 208.75 396.355 215.628C397.287 221.307 398.12 227.012 399.955 232.499C400.305 234.098 400.834 235.653 401.53 237.135C401.969 238.308 402.536 239.428 403.221 240.476C400.332 241.425 397.303 241.385 394.331 241.585C391.042 241.806 387.731 241.659 384.431 241.673C380.518 237.665 377.731 237.086 372.512 239.156C366.574 241.49 360.496 243.449 354.312 245.02C349.215 246.319 344.425 248.616 340.221 251.777C338.271 251.206 336.33 251.825 334.385 251.845C320.954 251.984 307.524 252.169 294.095 252.401C292.528 252.464 290.975 252.074 289.625 251.276C281.215 246.392 272.725 245.864 264.383 251.398C263.001 252.384 261.353 252.926 259.656 252.953C251.735 253.053 243.825 252.689 235.912 252.424C232.565 252.209 229.21 252.162 225.859 252.284L225.888 252.312L225.54 252.033C223.323 250.294 221.299 248.323 219.501 246.153C219.492 245.987 219.482 245.82 219.471 245.653C220.03 244.483 219.603 243.198 219.895 241.996C222.295 242.072 224.687 241.751 227.074 241.687C232.88 241.53 238.674 241.22 244.474 240.914C250.459 240.598 256.453 240.425 262.442 240.164C267.989 239.922 273.534 239.668 279.079 239.401C285.192 239.113 291.311 238.901 297.427 238.64C302.847 238.406 308.265 238.102 313.683 237.891C319.863 237.649 326.041 237.379 332.221 237.117C337.831 236.88 343.44 236.557 349.048 236.373C355.863 236.149 362.67 235.659 369.486 235.592C372.652 235.561 375.779 234.992 378.945 235.149C379.26 235.186 379.578 235.124 379.855 234.97C382.078 233.509 383.879 231.489 385.075 229.113C385.326 228.742 385.436 228.292 385.383 227.847C385.33 227.402 385.118 226.99 384.787 226.688C386.617 225.059 387.087 222.788 387.559 220.567C389.019 213.712 389.122 206.73 389.304 199.767C389.38 196.856 389.281 193.938 389.184 191.025C389.215 190.659 389.165 190.29 389.038 189.945C388.91 189.6 388.708 189.288 388.446 189.03C388.184 188.772 387.869 188.575 387.522 188.454C387.175 188.332 386.806 188.288 386.44 188.325C381.88 188.179 377.325 187.839 372.764 187.757C353.234 187.404 333.717 187.991 314.208 188.781C303.508 189.214 292.819 189.993 282.116 190.309C276.524 190.505 271.114 192.352 266.569 195.616C255.513 203.165 245.869 212.328 236.542 221.839C234.56 223.859 235.255 226.039 238.069 227.332C237.888 227.995 237.347 227.932 236.845 227.932C232.681 227.911 228.517 227.889 224.352 227.864L231.127 221.522C234.179 219.445 236.677 216.722 239.456 214.328C244.109 210.318 248.543 206.034 253.367 202.245C258.693 198.061 263.667 193.389 269.667 190.081C272.299 188.632 275.093 188.496 277.91 188.193C287.666 187.144 297.427 186.151 307.233 185.667C308.345 185.865 309.468 185.997 310.596 186.062C322.61 186.091 334.624 186.062 346.638 186.094C348.751 186.094 350.321 185.394 351.116 183.34L351.737 183.365" fill="#CDCDCD"/>
<path d="M219.887 241.985C220.298 238.3 220.71 234.615 221.121 230.93C222.028 229.743 223.114 228.703 224.34 227.849C228.505 227.872 232.669 227.894 236.833 227.917C237.333 227.917 237.876 227.982 238.057 227.317L243.369 227.244C243.389 227.434 243.483 227.609 243.629 227.732C243.776 227.855 243.965 227.916 244.156 227.902C247.756 227.906 251.353 227.909 254.946 227.911C255.546 227.911 255.905 227.675 255.916 227.037L259.339 226.937C259.348 227.805 259.864 228.176 260.551 227.754C261.047 227.511 261.607 227.431 262.151 227.526C273.918 227.533 285.684 227.533 297.451 227.526C298.051 227.526 298.786 227.718 298.928 226.779H300.828C301.482 227.961 302.117 227.979 302.728 226.747C302.98 226.725 303.228 226.683 303.483 226.683C330.578 226.676 357.673 226.672 384.768 226.67C385.099 226.972 385.311 227.383 385.364 227.829C385.417 228.274 385.307 228.724 385.056 229.095C383.86 231.471 382.059 233.491 379.836 234.952C379.559 235.106 379.241 235.168 378.927 235.131C375.761 234.969 372.634 235.543 369.468 235.574C362.652 235.641 355.846 236.131 349.03 236.355C343.422 236.539 337.813 236.862 332.203 237.099C326.024 237.36 319.846 237.631 313.665 237.873C308.247 238.085 302.829 238.388 297.409 238.622C291.293 238.886 285.175 239.095 279.061 239.384C273.516 239.646 267.97 239.9 262.424 240.147C256.435 240.408 250.441 240.582 244.456 240.897C238.656 241.203 232.864 241.513 227.056 241.67C224.669 241.734 222.28 242.055 219.877 241.979" fill="#CDCDCD"/>
<path d="M385.312 246.176C385.42 244.618 385.115 243.06 384.427 241.658C387.727 241.644 391.043 241.792 394.327 241.57C397.3 241.37 400.327 241.41 403.218 240.461C406.229 240.715 409.071 239.612 411.951 239.093C413.327 238.846 415.151 238.764 416.356 237.54C419.426 236.883 422.61 236.987 425.65 236.134C425.712 236.131 425.771 236.107 425.817 236.065C425.863 236.023 425.893 235.967 425.902 235.905C427.816 235.467 429.632 234.681 431.261 233.585C432.167 232.943 433.261 232.395 433.288 231.032L436.326 229.605L436.837 229.056C437.585 229.206 438.227 228.772 438.931 228.679C439.3 229.327 439.666 229.975 440.031 230.623C440 231.12 440.153 231.611 440.461 232.002C441.696 235.479 442.929 238.956 444.161 242.433C444.228 242.91 444.296 243.386 444.367 243.862C443.215 243.897 442.72 244.949 441.912 245.501C438.512 247.829 434.565 248.655 430.703 249.723L428.263 241.963C427.922 240.354 427.284 238.822 426.383 237.445L426.291 237.089L426.146 237.197L426.405 237.425C426.6 239 427.028 240.537 427.677 241.986L429.363 249.607C424.926 251.091 420.263 251.082 415.73 251.007C409.189 250.906 402.673 250.177 396.272 248.829C392.594 248.045 388.801 247.709 385.302 246.18" fill="#CDCDCD"/>
<path d="M385.312 246.175C388.812 247.705 392.604 248.041 396.282 248.824C402.683 250.172 409.199 250.901 415.74 251.002C420.277 251.082 424.94 251.091 429.373 249.602C431.699 261.728 432.312 274.121 431.195 286.418C430.842 291.712 430.176 296.981 429.2 302.196C424.081 300.864 419.255 298.589 414.97 295.488C412.195 293.433 409.663 291.068 407.424 288.439C407.113 284.727 406.949 280.999 406.274 277.324C405.975 275.388 405.477 273.489 404.786 271.656C403.212 267.804 401.071 267.504 398.491 270.809C398.021 271.402 397.632 272.054 397.334 272.749C395.448 277.231 393.899 281.847 392.7 286.559C392.017 289.595 391.333 292.631 390.65 295.666C381.15 307.06 369.132 313.096 354.138 312.771C352.448 303.171 348.475 294.417 344.054 285.853C342.02 281.912 338.554 279.243 334.819 277.035C325.148 271.322 314.53 268.299 303.568 266.312C305.497 265.012 307.741 265.527 309.812 265.412C314.862 265.132 319.931 265.198 324.992 265.142C325.304 265.179 325.61 265.255 325.903 265.37C326.392 266.751 327.639 266.87 328.811 267.105C333.16 267.979 337.511 267.154 341.838 266.967C347.308 266.731 352.756 266.012 358.221 265.605C364.004 265.226 369.756 264.476 375.442 263.357C381.222 262.169 383.76 257.372 384.219 251.934C384.354 249.977 384.723 248.042 385.319 246.173" fill="#CDCDCD"/>
<path d="M443.883 291.076C442.962 289.994 443.844 288.899 443.966 287.862C444.152 285.25 444.899 282.71 446.157 280.414C448.173 283.033 448.618 286.222 449.09 289.308C450.953 300.631 450.728 312.199 448.427 323.441C448.046 325.04 447.521 326.601 446.859 328.106C446.431 329.141 445.869 330.29 444.51 330.306C443.151 330.322 442.601 329.186 442.119 328.16C440.91 325.303 440.102 322.293 439.719 319.215C439.619 318.605 439.764 317.932 439.056 317.238C436.948 320.438 433.489 319.904 430.356 320.338C428.667 320.569 426.964 320.705 425.267 320.883L411.224 322.268C411.783 319.041 412.114 315.778 412.214 312.505C412.256 305.036 410.793 297.635 407.914 290.744C407.65 290.112 407.495 289.433 407.29 288.776C407.332 288.663 407.375 288.551 407.42 288.439C409.66 291.067 412.191 293.432 414.966 295.488C419.251 298.588 424.076 300.863 429.195 302.196C428.785 304.805 428.376 307.415 427.967 310.025L428.196 310.068L430.209 302.846C433.762 303.232 437.203 304.293 440.775 304.595C441.458 304.653 442.141 304.761 442.832 304.756C442.829 305.511 442.778 306.266 442.678 307.015C441.804 311.501 442.726 315.815 443.942 320.083C444.256 321.183 444.57 322.708 446.029 322.69C447.469 322.671 447.713 321.151 448.098 320.052C449.247 316.299 449.824 312.394 449.811 308.469C450.032 302.707 449.843 296.962 448.15 291.385C447.793 290.209 447.512 288.618 446.05 288.52C444.588 288.422 444.501 290.12 443.876 291.078" fill="#CDCDCD"/>
<path d="M405.639 336.743C407.797 332.979 409.499 328.973 410.711 324.807C415.917 325.152 421.146 325.101 426.338 325.693C427.332 329.543 428.798 333.256 430.703 336.747H405.639" fill="#F1F1F1"/>
<path d="M411.231 322.268L425.274 320.883C425.477 321.949 425.681 323.016 425.884 324.083L411.06 323.428C411.117 323.041 411.174 322.654 411.231 322.267" fill="#F1F1F1"/>
<path d="M411.06 323.429L425.884 324.084L426.338 325.694C421.146 325.101 415.917 325.152 410.71 324.807C410.827 324.348 410.943 323.888 411.059 323.429" fill="#C9C9C9"/>
<path d="M356.015 325.678C356.91 325.685 357.803 325.235 358.699 325.664C358.331 328.972 357.951 332.279 357.599 335.59C357.529 336.264 357.499 336.88 356.578 336.785C355.689 336.693 355.92 335.993 355.922 335.485C355.934 332.216 355.977 328.948 356.01 325.679" fill="#F1F1F1"/>
<path d="M384.216 251.937C383.757 257.375 381.216 262.171 375.439 263.36C369.753 264.479 364.001 265.23 358.218 265.608C352.753 266.014 347.305 266.734 341.835 266.97C337.504 267.157 333.157 267.983 328.808 267.109C327.635 266.873 326.39 266.755 325.9 265.374C327.071 265.176 328.265 265.156 329.442 265.315C329.388 266.069 329.86 266.108 330.42 266.041C343.12 264.507 355.978 265.341 368.649 263.408C371.149 263.026 373.603 262.408 376.071 261.859C379.731 261.043 381.885 258.74 383.071 255.34C383.471 254.211 383.833 253.072 384.213 251.94" fill="white"/>
<path d="M218.635 265.289C214.49 265.507 210.347 265.809 206.199 265.907C204.115 266.022 202.032 265.675 200.099 264.889C198.259 264.078 197.115 262.8 197.305 260.648C200.072 264.506 204.249 264.034 208.171 264.016C211.64 264 215.107 263.589 218.571 263.352L218.683 263.498C218.694 264.069 218.706 264.641 218.718 265.213L218.635 265.289Z" fill="white"/>
<path d="M235.352 264.468C233.817 264.967 232.21 265.209 230.596 265.183C226.64 265.275 222.681 265.214 218.724 265.215C218.713 264.642 218.701 264.07 218.69 263.499L232.915 263.389C233.454 264.366 234.677 263.799 235.353 264.468" fill="#F6F6F6"/>
<path d="M305.778 192.104C312.583 191.494 319.413 191.463 326.234 191.266C337.925 190.928 349.617 190.56 361.316 190.766C361.181 190.966 361.09 191.242 360.903 191.346C356.064 194.053 351.21 196.734 346.369 199.436C333.262 206.752 320.16 214.077 307.063 221.411C306.341 221.811 305.35 222.071 305.374 223.217C297.514 223.273 289.655 223.311 281.795 223.39C270.195 223.507 258.595 223.637 246.995 223.782C246.554 223.782 246.112 223.744 245.67 223.723C245.856 223.556 246.057 223.406 246.27 223.275C252.07 220.349 257.897 217.475 263.67 214.5C270.848 210.8 277.97 206.981 285.137 203.265C291.47 199.983 297.843 196.779 304.185 193.517C304.814 193.193 305.725 193.117 305.785 192.109" fill="#F6F6F6"/>
<path d="M305.375 223.21C305.351 222.064 306.341 221.81 307.064 221.403C320.157 214.063 333.259 206.738 346.37 199.428C351.212 196.728 356.07 194.045 360.904 191.338C361.091 191.238 361.181 190.955 361.317 190.758C368.385 190.599 375.442 190.896 382.498 191.245C382.847 191.215 383.198 191.265 383.525 191.39C383.852 191.515 384.146 191.712 384.387 191.966C384.627 192.221 384.807 192.526 384.912 192.86C385.018 193.193 385.048 193.546 384.998 193.893C385.006 195.846 384.979 197.799 384.967 199.752C384.038 199.958 383.157 200.336 382.367 200.867C369.302 207.65 356.22 214.402 343.222 221.311C341.805 222.065 340.174 222.211 338.906 223.211C328.168 223.242 317.43 223.271 306.692 223.298C306.252 223.298 305.813 223.241 305.374 223.211" fill="#F6F6F6"/>
<path d="M305.778 192.104C305.721 193.104 304.81 193.188 304.178 193.512C297.836 196.775 291.463 199.978 285.13 203.26C277.959 206.976 270.84 210.792 263.663 214.495C257.89 217.473 252.063 220.344 246.263 223.27C246.05 223.4 245.849 223.55 245.663 223.718C244.146 224.012 242.863 223.712 242.152 222.201C241.425 220.661 242.388 219.701 243.413 218.777C252.078 210.957 260.913 203.352 270.947 197.29C274.947 194.873 279.094 193.113 283.933 193.008C291.214 192.85 298.476 192.077 305.77 192.108" fill="#F6F6F6"/>
<path d="M338.908 223.213C340.175 222.213 341.808 222.067 343.224 221.313C356.224 214.405 369.304 207.653 382.369 200.869C383.159 200.338 384.04 199.96 384.969 199.754C385.168 205.951 384.656 212.151 383.441 218.231C383.333 218.724 383.194 219.212 383.041 219.694C381.988 223.014 381.458 223.388 377.976 223.381C365.957 223.359 353.937 223.34 341.917 223.325C341.412 223.325 340.906 223.297 340.401 223.282C340.287 223.105 340.165 223.076 340.031 223.261L338.91 223.211" fill="#F6F6F6"/>
<path d="M340.029 223.262C340.163 223.077 340.286 223.106 340.399 223.283L340.029 223.262Z" fill="#B6CDC3"/>
<path d="M340.888 254.488C343.662 252.527 346.718 250.998 349.95 249.952C355.65 248.099 361.532 246.804 367.156 244.681C369.166 243.922 371.156 243.103 373.192 242.421C376.566 241.29 379.532 242.204 382.192 244.421C383.26 245.312 382.926 245.758 381.765 246.183C372.454 249.77 362.805 252.409 352.965 254.061C349.483 254.585 345.933 254.661 342.411 254.905C341.951 254.937 341.397 255.117 340.892 254.49" fill="#FEFEFE"/>
<path d="M430.211 302.846L428.197 310.068L427.968 310.025C428.377 307.416 428.787 304.806 429.196 302.196C430.174 296.981 430.842 291.712 431.196 286.418C432.314 274.123 431.701 261.732 429.377 249.607C428.814 247.067 428.252 244.527 427.691 241.986L428.278 241.963L430.718 249.723C432.607 258.134 433.513 266.736 433.418 275.356C433.301 284.163 432.282 292.935 430.378 301.534C430.284 301.962 430.265 302.407 430.211 302.845" fill="#74140D"/>
<path d="M428.274 241.963L427.687 241.986C427.038 240.537 426.608 239 426.414 237.425L426.393 237.445C427.294 238.821 427.931 240.353 428.273 241.963" fill="#AA2A04"/>
<path d="M426.415 237.427L426.156 237.199L426.301 237.091L426.394 237.447L426.415 237.427Z" fill="#AA2A04"/>
<path d="M425.655 236.133C425.661 236.07 425.69 236.011 425.737 235.969C425.784 235.926 425.845 235.903 425.908 235.904C425.899 235.965 425.869 236.022 425.823 236.064C425.777 236.106 425.717 236.13 425.655 236.133Z" fill="#AA2A04"/>
<path d="M407.322 230.937C405.114 230.413 404.009 228.737 403.139 226.859C400.439 221.012 399.125 214.759 397.829 208.505C396.901 204.025 396.217 199.526 397.053 194.956C397.672 191.572 398.894 190.626 402.31 190.492C402.901 190.429 403.497 190.54 404.026 190.81C404.555 191.08 404.994 191.498 405.289 192.013C410.737 200.176 415.021 209.057 418.018 218.402C415.006 218.676 412 218.95 409.018 219.502C408.674 219.525 408.338 219.615 408.029 219.768C407.72 219.922 407.444 220.135 407.218 220.395C406.992 220.655 406.819 220.958 406.711 221.285C406.602 221.612 406.559 221.958 406.585 222.302C406.511 224.574 406.697 226.847 407.141 229.076C407.336 229.676 407.399 230.311 407.325 230.937" fill="#F6F6F6"/>
<path d="M419.019 218.309C416.385 210.509 413.773 202.709 409.385 195.653C409.059 195.128 408.526 194.503 409.096 193.953C409.765 193.305 410.39 193.977 410.935 194.353C421.189 201.387 427.945 210.824 430.604 223.063C427.383 219.916 423.266 218.957 419.019 218.315" fill="#F6F6F6"/>
<path d="M219.09 256.451C219.077 253.883 218.728 251.304 219.33 248.751C222.769 251.228 226.011 253.9 228.177 257.645C228.859 258.826 229.543 260.006 230.396 261.479C226.196 260.201 222.831 257.899 219.091 256.447" fill="#FEFEFE"/>
<path d="M330.161 181.425C330.482 180.778 330.844 180.153 331.245 179.553C331.831 178.932 332.159 178.112 332.164 177.258C332.169 176.404 331.85 175.581 331.272 174.953C330.947 174.514 330.034 173.736 330.885 173.284C331.083 173.145 331.311 173.054 331.55 173.019C331.789 172.984 332.034 173.005 332.263 173.08C332.493 173.156 332.702 173.284 332.874 173.454C333.045 173.625 333.175 173.833 333.252 174.062C333.435 174.484 333.64 174.897 333.866 175.298C334.655 173.92 335.29 172.352 337.474 173.526C334.88 176.019 335.374 178.677 337.631 181.18C335.259 182.198 334.539 180.749 333.957 179.057C333.466 180.083 332.622 180.897 331.578 181.349C330.535 181.8 329.363 181.86 328.279 181.516C328.062 181.481 327.862 181.375 327.711 181.214C327.56 181.054 327.466 180.849 327.444 180.63C327.433 180.472 327.39 180.319 327.318 180.178C327.245 180.038 327.144 179.914 327.021 179.815C326.899 179.715 326.757 179.642 326.605 179.6C326.453 179.557 326.293 179.547 326.137 179.569C325.382 179.579 324.937 179.81 324.819 180.592C324.632 181.869 323.624 181.599 322.898 181.427C322.025 181.222 322.552 180.477 322.676 180.012C323.181 178.112 323.819 176.253 324.282 174.347C324.537 173.3 325.115 173.104 326.057 173.136C326.976 173.167 327.732 173.112 328.037 174.325C328.605 176.581 329.361 178.79 330.161 181.425ZM326.172 175.392C326.005 175.545 325.872 175.732 325.781 175.94C325.69 176.147 325.644 176.372 325.645 176.599C325.591 177.009 325.299 177.491 325.754 177.824C325.858 177.883 325.974 177.917 326.094 177.923C326.214 177.928 326.333 177.906 326.442 177.857C326.942 177.548 326.659 177.067 326.573 176.663C326.461 176.233 326.327 175.808 326.173 175.392" fill="#C9C9C9"/>
<path d="M330.161 181.425C330.482 180.778 330.844 180.153 331.245 179.553C331.831 178.932 332.159 178.112 332.164 177.258C332.169 176.404 331.85 175.581 331.272 174.953C330.947 174.514 330.034 173.736 330.885 173.284C331.083 173.145 331.311 173.054 331.55 173.019C331.789 172.984 332.034 173.005 332.263 173.08C332.493 173.156 332.702 173.284 332.874 173.454C333.045 173.625 333.175 173.833 333.252 174.062C333.435 174.484 333.64 174.897 333.866 175.298C334.655 173.92 335.29 172.352 337.474 173.526C334.88 176.019 335.374 178.677 337.631 181.18C335.259 182.198 334.539 180.749 333.957 179.057C333.466 180.083 332.622 180.897 331.578 181.349C330.535 181.8 329.363 181.86 328.279 181.516C328.062 181.481 327.862 181.375 327.711 181.214C327.56 181.054 327.466 180.849 327.444 180.63C327.433 180.472 327.39 180.319 327.318 180.178C327.245 180.038 327.144 179.914 327.021 179.815C326.899 179.715 326.757 179.642 326.605 179.6C326.453 179.557 326.293 179.547 326.137 179.569C325.382 179.579 324.937 179.81 324.819 180.592C324.632 181.869 323.624 181.599 322.898 181.427C322.025 181.222 322.552 180.477 322.676 180.012C323.181 178.112 323.819 176.253 324.282 174.347C324.537 173.3 325.115 173.104 326.057 173.136C326.976 173.167 327.732 173.112 328.037 174.325C328.605 176.581 329.361 178.79 330.161 181.425M326.172 175.392C326.005 175.545 325.872 175.732 325.781 175.94C325.69 176.147 325.644 176.372 325.645 176.599C325.591 177.009 325.299 177.491 325.754 177.824C325.858 177.883 325.974 177.917 326.094 177.923C326.214 177.928 326.333 177.906 326.442 177.857C326.942 177.548 326.659 177.067 326.573 176.663C326.461 176.233 326.327 175.808 326.173 175.392" stroke="#C9C9C9"/>
<path d="M319.554 173.159C320.249 173.159 320.944 173.166 321.638 173.159C322.249 173.15 322.775 173.189 322.793 174.02C322.807 174.713 322.602 175.155 321.841 175.052C320.598 174.885 320.551 175.63 320.582 176.552C320.624 177.814 320.551 179.08 320.605 180.34C320.644 181.252 320.294 181.552 319.394 181.54C318.548 181.526 318.301 181.18 318.323 180.396C318.36 179.071 318.295 177.743 318.344 176.418C318.377 175.518 318.214 174.918 317.127 175.061C316.383 175.156 316.133 174.761 316.147 174.053C316.163 173.243 316.647 173.153 317.282 173.166C318.039 173.181 318.797 173.166 319.555 173.166" fill="#C9C9C9"/>
<path d="M319.554 173.159C320.249 173.159 320.944 173.166 321.638 173.159C322.249 173.15 322.775 173.189 322.793 174.02C322.807 174.713 322.602 175.155 321.841 175.052C320.598 174.885 320.551 175.63 320.582 176.552C320.624 177.814 320.551 179.08 320.605 180.34C320.644 181.252 320.294 181.552 319.394 181.54C318.548 181.526 318.301 181.18 318.323 180.396C318.36 179.071 318.295 177.743 318.344 176.418C318.377 175.518 318.214 174.918 317.127 175.061C316.383 175.156 316.133 174.761 316.147 174.053C316.163 173.243 316.647 173.153 317.282 173.166C318.039 173.181 318.797 173.166 319.555 173.166" stroke="#C9C9C9"/>
<path d="M338.513 177.3C338.513 176.352 338.537 175.4 338.504 174.458C338.477 173.668 338.585 173.153 339.597 173.133C340.697 173.111 340.829 173.656 340.811 174.533C340.774 176.427 340.78 178.323 340.811 180.218C340.822 181.01 340.72 181.51 339.711 181.535C338.605 181.562 338.466 181.018 338.505 180.135C338.548 179.189 338.515 178.241 338.514 177.293" fill="#C9C9C9"/>
<path d="M338.513 177.3C338.513 176.352 338.537 175.4 338.504 174.458C338.477 173.668 338.585 173.153 339.597 173.133C340.697 173.111 340.829 173.656 340.811 174.533C340.774 176.427 340.78 178.323 340.811 180.218C340.822 181.01 340.72 181.51 339.711 181.535C338.605 181.562 338.466 181.018 338.505 180.135C338.548 179.189 338.515 178.241 338.514 177.293" stroke="#C9C9C9"/>
<path d="M326.172 175.392C326.326 175.809 326.46 176.233 326.572 176.663C326.659 177.063 326.944 177.548 326.441 177.857C326.332 177.906 326.213 177.928 326.093 177.923C325.973 177.917 325.857 177.883 325.753 177.824C325.298 177.491 325.59 177.009 325.644 176.599C325.643 176.372 325.689 176.148 325.78 175.94C325.871 175.732 326.004 175.545 326.171 175.392" fill="#C9C9C9"/>
<path d="M326.172 175.392C326.326 175.809 326.46 176.233 326.572 176.663C326.659 177.063 326.944 177.548 326.441 177.857C326.332 177.906 326.213 177.928 326.093 177.923C325.973 177.917 325.857 177.883 325.753 177.824C325.298 177.491 325.59 177.009 325.644 176.599C325.643 176.372 325.689 176.148 325.78 175.94C325.871 175.732 326.004 175.545 326.171 175.392" stroke="#C9C9C9"/>
<path d="M241.528 283.417C242.936 281.647 244.997 281.291 246.999 281.284C264.999 281.221 282.999 281.218 300.999 281.275C302.415 281.27 303.812 281.605 305.071 282.253C306.331 282.901 307.416 283.841 308.236 284.996C309.056 286.151 309.587 287.485 309.783 288.888C309.98 290.29 309.836 291.719 309.365 293.055C309.044 294.224 308.332 295.248 307.347 295.955C306.014 296.339 304.651 296.61 303.272 296.764C285.349 296.734 267.426 296.757 249.503 296.735C244.927 296.729 241.63 293.894 240.57 289.459C240.094 287.467 240.909 285.726 241.136 283.871L241.103 283.88L241.529 283.416" fill="#E6E6E6"/>
<path d="M241.528 283.42L241.102 283.884L241.528 283.42Z" fill="#540B07"/>
<path d="M407.422 288.439C407.377 288.55 407.334 288.663 407.292 288.776C405.701 287.147 404.919 284.949 403.42 283.255C403.012 282.793 402.695 282.064 402.02 282.114C401.11 282.182 401.244 283.157 401.02 283.749C400.72 284.549 400.759 285.485 400.111 286.165C397.56 284.807 395.111 285.434 392.695 286.565C393.894 281.85 395.444 277.232 397.331 272.748C397.629 272.053 398.018 271.401 398.488 270.808C401.068 267.502 403.209 267.803 404.788 271.654C405.478 273.487 405.977 275.386 406.276 277.322C406.951 280.997 407.116 284.722 407.426 288.437" fill="black"/>
<path d="M284.048 138.86C284.029 138.769 283.991 138.684 283.937 138.609C283.883 138.534 283.814 138.472 283.735 138.424L280.64 136.414C281.074 135.35 281.257 134.201 281.174 133.055L285.392 135.794C285.467 135.847 285.552 135.884 285.641 135.903C285.731 135.922 285.824 135.921 285.914 135.902C286.004 135.883 286.088 135.846 286.163 135.792C286.237 135.739 286.3 135.67 286.347 135.591L287.547 133.744C287.6 133.669 287.637 133.584 287.655 133.494C287.674 133.404 287.674 133.312 287.654 133.222C287.635 133.132 287.598 133.048 287.545 132.973C287.491 132.898 287.423 132.836 287.344 132.789L272.287 123.008C272.212 122.955 272.127 122.918 272.038 122.9C271.948 122.881 271.855 122.882 271.765 122.901C271.676 122.92 271.591 122.957 271.516 123.011C271.442 123.064 271.379 123.132 271.332 123.211L269.768 125.619C269.671 125.773 269.638 125.959 269.676 126.138C269.714 126.316 269.82 126.473 269.971 126.574L272.596 128.279C275.143 129.934 276.317 131.666 276.12 133.477L268.642 128.62C268.568 128.567 268.482 128.53 268.393 128.511C268.303 128.493 268.21 128.493 268.12 128.512C268.031 128.531 267.946 128.568 267.871 128.622C267.797 128.675 267.734 128.744 267.687 128.822L266.488 130.668C266.435 130.743 266.398 130.828 266.38 130.918C266.361 131.008 266.362 131.1 266.381 131.19C266.4 131.28 266.437 131.365 266.491 131.439C266.544 131.514 266.612 131.576 266.691 131.623L274.418 136.643C273.972 137.047 273.444 137.35 272.87 137.533C272.296 137.716 271.689 137.774 271.091 137.702C269.522 137.491 268.028 136.901 266.739 135.982L264.714 134.667C264.56 134.57 264.374 134.537 264.195 134.575C264.017 134.613 263.861 134.719 263.759 134.87L262.265 137.17C262.216 137.242 262.181 137.324 262.164 137.41C262.148 137.496 262.148 137.584 262.167 137.67C262.885 141.636 263.652 147.034 264.468 153.864C264.474 153.968 264.505 154.07 264.56 154.159C264.614 154.248 264.69 154.322 264.78 154.376L268.31 156.669C268.416 156.749 268.544 156.794 268.676 156.796C268.809 156.799 268.939 156.76 269.047 156.684C269.169 156.627 269.268 156.531 269.328 156.41C269.388 156.29 269.404 156.152 269.375 156.021C268.658 149.411 267.991 144.378 267.373 140.922C269.297 141.959 271.488 142.396 273.663 142.177C275.636 141.928 277.448 140.96 278.751 139.458L281.792 141.434C281.867 141.486 281.952 141.523 282.042 141.542C282.131 141.56 282.224 141.56 282.314 141.541C282.403 141.522 282.488 141.484 282.563 141.431C282.637 141.378 282.7 141.309 282.747 141.231L283.945 139.386C283.998 139.31 284.034 139.224 284.052 139.133C284.069 139.043 284.068 138.95 284.048 138.86Z" fill="white" stroke="#C9C9C9" stroke-width="1.00047"/>
</g>
<defs>
<clipPath id="clip0_90_1036">
<rect width="428" height="374" fill="white"/>
</clipPath>
</defs>
</svg>
