<svg width="427" height="374" viewBox="0 0 427 374" fill="none" xmlns="http://www.w3.org/2000/svg">
<g clip-path="url(#clip0_90_958)">
<path d="M530.24 268.02C531.225 276.112 531.225 276.112 523.109 276.112C519.277 276.112 515.445 276.112 511.614 276.112C509.937 276.112 507.864 275.987 507.946 278.322C508.016 280.327 509.973 280.107 511.451 280.111C516.951 280.123 522.451 280.249 527.942 280.06C530.592 279.969 531.889 280.67 532.092 283.486C532.512 289.295 533.504 295.079 533.642 300.886C533.708 303.099 533.331 305.304 532.533 307.369C531.736 309.435 530.533 311.321 528.997 312.915C527.461 314.51 525.621 315.782 523.587 316.656C521.552 317.53 519.363 317.989 517.149 318.006C509.99 318.222 502.813 317.948 495.665 318.3C492.106 318.475 491.448 317.259 491.158 313.916C489.367 293.288 479.282 277.992 460.158 269.78C441.478 261.76 423.567 264.344 407.588 276.966C395.433 286.566 389.115 299.521 388.639 315.013C388.525 318.725 387.309 319.249 384.057 319.275C322.59 319.766 261.124 320.35 199.657 321.027C195.526 321.074 193.857 320.693 193.764 315.678C193.264 289.919 173.447 268.967 148.447 267.078C135.95 266.007 123.507 269.667 113.58 277.334C103.654 285.001 96.9682 296.116 94.847 308.478C94.5949 310.124 94.445 311.785 94.398 313.45C94.054 319.934 94.055 320.003 87.869 318.934C72.133 316.214 56.393 313.509 40.684 310.634C30.841 308.834 24.814 302.31 24.465 293.755C24.355 291.04 24.626 289.515 28.086 289.826C32.548 290.226 37.074 289.919 41.572 289.926C43.106 289.926 44.872 289.992 44.947 287.941C45.027 285.773 43.194 285.929 41.702 285.924C37.202 285.909 32.702 285.81 28.209 285.958C25.882 286.034 24.997 285.54 25.254 282.931C26.528 270.007 27.64 257.067 28.72 244.125C28.92 241.683 29.675 240.68 32.391 240.851C37.038 241.143 41.716 240.94 46.381 240.924C47.901 240.924 49.67 240.966 49.621 238.824C49.57 236.603 47.677 236.958 46.249 236.944C41.9219 236.748 37.5876 236.772 33.263 237.017C29.299 237.385 29.326 235.638 29.941 232.698C32.035 222.68 40.019 214.774 50.254 215.457C62.387 216.267 72.373 211.966 82.772 206.838C120.535 188.218 159.956 174.505 201.69 167.746C241.545 161.292 280.659 164.902 319.335 175.466C348.031 183.425 375.757 194.537 402.007 208.6C417.363 216.735 434.335 220.725 450.794 225.942C467.094 231.108 483.519 235.865 499.889 240.801C496.923 245.563 498.716 250.801 498.615 255.784C498.385 267.101 502.098 269.644 513.367 268.753C519.007 268.307 524.616 268.231 530.24 268.019M237.929 213.967C238.617 221.935 238.617 221.935 230.97 221.935C210.816 221.935 190.663 221.899 170.51 221.994C168.615 222.003 165.322 220.683 165.184 223.78C165.041 227.002 168.358 225.601 170.275 225.942C170.441 225.957 170.609 225.957 170.775 225.942H388.63C389.796 225.942 390.965 225.97 392.13 225.889C393.408 225.801 394.463 225.246 394.41 223.797C394.354 222.31 393.21 221.971 391.947 221.954C390.615 221.936 389.282 221.933 387.947 221.933C341.147 221.933 294.341 221.851 247.539 222.059C242.892 222.08 241.639 220.635 242.31 216.486C242.443 215.67 242.47 214.836 242.546 214.01C283.527 214.01 324.508 213.999 365.487 213.977C367.512 213.977 370.332 214.945 371.142 212.199C372.024 209.211 369.172 208.299 367.142 207.355C354.492 201.473 341.674 196.027 328.478 191.416C306.004 183.565 282.957 178.063 259.29 176.308C246.018 175.295 232.682 175.474 219.442 176.845C200.361 179.01 181.526 182.971 163.19 188.677C146.475 193.729 130.313 200.255 114.323 207.22C112.714 207.92 110.41 208.384 110.78 210.764C111.211 213.533 113.691 212.987 115.614 212.999C156.387 213.255 197.168 212.314 237.929 213.967ZM292.178 306.075H354.078C358.738 306.075 363.398 306.121 368.056 306.05C369.741 306.025 372.339 306.688 372.216 303.986C372.099 301.42 369.531 302.225 367.824 302.068C367.494 302.038 367.159 302.068 366.824 302.068C317.234 302.068 267.643 302.068 218.052 302.068C216.888 302.068 215.717 302.028 214.561 302.135C214.056 302.12 213.565 302.304 213.193 302.646C212.821 302.988 212.597 303.461 212.569 303.966C212.469 305.484 213.5 305.976 214.791 306.034C216.12 306.095 217.453 306.075 218.784 306.076H292.171M138.273 225.942C143.762 225.942 149.252 225.934 154.741 225.942C156.323 225.942 158.032 225.815 157.995 223.815C157.955 221.694 156.079 221.939 154.61 221.938C143.631 221.928 132.652 221.931 121.675 221.948C120.24 221.948 118.344 221.648 118.443 223.934C118.534 226.027 120.307 225.926 121.806 225.934C127.295 225.951 132.784 225.941 138.273 225.94M255 240.761C253.01 240.761 251.019 240.771 249.029 240.761C247.616 240.752 246.106 240.951 246.071 242.641C246.038 244.233 247.401 244.777 248.881 244.779C252.696 244.786 256.511 244.796 260.326 244.779C261.726 244.772 263.182 244.446 263.27 242.802C263.37 241.031 261.87 240.802 260.47 240.782C258.646 240.755 256.821 240.775 254.997 240.767" fill="#FDFDFD"/>
<path d="M530.24 268.02C531.225 276.112 531.225 276.112 523.109 276.112C519.277 276.112 515.445 276.112 511.614 276.112C509.937 276.112 507.864 275.987 507.946 278.322C508.016 280.327 509.973 280.107 511.451 280.111C516.951 280.123 522.451 280.249 527.942 280.06C530.592 279.969 531.889 280.67 532.092 283.486C532.512 289.295 533.504 295.079 533.642 300.886C533.708 303.099 533.331 305.304 532.533 307.369C531.736 309.435 530.533 311.321 528.997 312.915C527.461 314.51 525.621 315.782 523.587 316.656C521.552 317.53 519.363 317.989 517.149 318.006C509.99 318.222 502.813 317.948 495.665 318.3C492.106 318.475 491.448 317.259 491.158 313.916C489.367 293.288 479.282 277.992 460.158 269.78C441.478 261.76 423.567 264.344 407.588 276.966C395.433 286.566 389.115 299.521 388.639 315.013C388.525 318.725 387.309 319.249 384.057 319.275C322.59 319.766 261.124 320.35 199.657 321.027C195.526 321.074 193.857 320.693 193.764 315.678C193.264 289.919 173.447 268.967 148.447 267.078C135.95 266.007 123.507 269.667 113.58 277.334C103.654 285.001 96.9682 296.116 94.847 308.478C94.5949 310.124 94.445 311.785 94.398 313.45C94.054 319.934 94.055 320.003 87.869 318.934C72.133 316.214 56.393 313.509 40.684 310.634C30.841 308.834 24.814 302.31 24.465 293.755C24.355 291.04 24.626 289.515 28.086 289.826C32.548 290.226 37.074 289.919 41.572 289.926C43.106 289.926 44.872 289.992 44.947 287.941C45.027 285.773 43.194 285.929 41.702 285.924C37.202 285.909 32.702 285.81 28.209 285.958C25.882 286.034 24.997 285.54 25.254 282.931C26.528 270.007 27.64 257.067 28.72 244.125C28.92 241.683 29.675 240.68 32.391 240.851C37.038 241.143 41.716 240.94 46.381 240.924C47.901 240.924 49.67 240.966 49.621 238.824C49.57 236.603 47.677 236.958 46.249 236.944C41.9219 236.748 37.5876 236.772 33.263 237.017C29.299 237.385 29.326 235.638 29.941 232.698C32.035 222.68 40.019 214.774 50.254 215.457C62.387 216.267 72.373 211.966 82.772 206.838C120.535 188.218 159.956 174.505 201.69 167.746C241.545 161.292 280.659 164.902 319.335 175.466C348.031 183.425 375.757 194.537 402.007 208.6C417.363 216.735 434.335 220.725 450.794 225.942C467.094 231.108 483.519 235.865 499.889 240.801C496.923 245.563 498.716 250.801 498.615 255.784C498.385 267.101 502.098 269.644 513.367 268.753C519.007 268.308 524.616 268.232 530.24 268.02ZM237.929 213.967C238.617 221.935 238.617 221.935 230.97 221.935C210.816 221.935 190.663 221.899 170.51 221.994C168.615 222.003 165.322 220.683 165.184 223.78C165.041 227.002 168.358 225.601 170.275 225.942C170.441 225.957 170.609 225.957 170.775 225.942H388.63C389.796 225.942 390.965 225.97 392.13 225.889C393.408 225.801 394.463 225.246 394.41 223.797C394.354 222.31 393.21 221.971 391.947 221.954C390.615 221.936 389.282 221.933 387.947 221.933C341.147 221.933 294.341 221.851 247.539 222.059C242.892 222.08 241.639 220.635 242.31 216.486C242.443 215.67 242.47 214.836 242.546 214.01C283.527 214.01 324.508 213.999 365.487 213.977C367.512 213.977 370.332 214.945 371.142 212.199C372.024 209.211 369.172 208.299 367.142 207.355C354.492 201.473 341.674 196.027 328.478 191.416C306.004 183.565 282.957 178.063 259.29 176.308C246.018 175.295 232.682 175.474 219.442 176.845C200.361 179.01 181.526 182.971 163.19 188.677C146.475 193.729 130.313 200.255 114.323 207.22C112.714 207.92 110.41 208.384 110.78 210.764C111.211 213.533 113.691 212.987 115.614 212.999C156.387 213.255 197.168 212.314 237.929 213.967ZM292.178 306.075H354.078C358.738 306.075 363.398 306.121 368.056 306.05C369.741 306.025 372.339 306.688 372.216 303.986C372.099 301.42 369.531 302.225 367.824 302.068C367.494 302.038 367.159 302.068 366.824 302.068C317.234 302.068 267.643 302.068 218.052 302.068C216.888 302.068 215.717 302.028 214.561 302.135C214.056 302.12 213.565 302.304 213.193 302.646C212.821 302.988 212.597 303.461 212.569 303.966C212.469 305.484 213.5 305.976 214.791 306.034C216.12 306.095 217.453 306.075 218.784 306.076L292.178 306.075ZM138.273 225.942C143.762 225.942 149.252 225.934 154.741 225.942C156.323 225.942 158.032 225.815 157.995 223.815C157.955 221.694 156.079 221.939 154.61 221.938C143.631 221.928 132.652 221.931 121.675 221.948C120.24 221.948 118.344 221.648 118.443 223.934C118.534 226.027 120.307 225.926 121.806 225.934C127.295 225.953 132.784 225.943 138.273 225.942ZM255 240.761C253.01 240.761 251.019 240.771 249.029 240.761C247.616 240.752 246.106 240.951 246.071 242.641C246.038 244.233 247.401 244.777 248.881 244.779C252.696 244.786 256.511 244.796 260.326 244.779C261.726 244.772 263.182 244.446 263.27 242.802C263.37 241.031 261.87 240.802 260.47 240.782C258.653 240.749 256.828 240.769 255 240.761Z" stroke="#3B3B3B" stroke-miterlimit="10"/>
<path d="M405.413 314.073C405.401 307.25 407.41 300.576 411.189 294.895C414.967 289.214 420.344 284.78 426.641 282.153C432.938 279.526 439.873 278.824 446.569 280.135C453.264 281.447 459.421 284.714 464.261 289.523C469.101 294.332 472.408 300.467 473.763 307.154C475.118 313.842 474.461 320.78 471.875 327.094C469.289 333.408 464.89 338.814 459.233 342.629C453.576 346.444 446.916 348.497 440.093 348.529C435.55 348.556 431.047 347.685 426.841 345.965C422.636 344.246 418.813 341.713 415.59 338.511C412.367 335.309 409.809 331.501 408.062 327.308C406.316 323.114 405.415 318.616 405.413 314.073ZM459.676 314.245C459.742 302.865 451.253 294.067 440.137 293.994C429.237 293.921 419.594 303.208 419.663 313.717C419.716 319.02 421.824 324.096 425.543 327.877C429.261 331.659 434.301 333.851 439.603 333.992C442.229 334.058 444.842 333.594 447.286 332.629C449.729 331.664 451.954 330.217 453.826 328.375C455.699 326.532 457.182 324.332 458.187 321.904C459.192 319.477 459.698 316.872 459.676 314.245Z" fill="#121212"/>
<path d="M178.771 338.984C181.925 334.042 184.292 328.64 185.788 322.971C188.353 328.288 192.543 328.99 197.42 328.938C260.474 328.253 323.528 327.629 386.583 327.066C393.925 326.994 396.275 324.578 396.47 317.136C396.505 314.786 396.708 312.441 397.076 310.12C396.661 320.359 399.509 330.465 405.211 338.979H178.771" fill="#F2F2F2"/>
<path d="M178.579 313.96C178.581 320.78 176.562 327.448 172.777 333.122C168.992 338.796 163.61 343.22 157.312 345.838C151.014 348.455 144.081 349.147 137.39 347.827C130.698 346.507 124.548 343.234 119.716 338.421C114.883 333.607 111.585 327.47 110.239 320.784C108.892 314.098 109.556 307.163 112.148 300.854C114.741 294.546 119.144 289.147 124.802 285.339C130.461 281.531 137.121 279.485 143.941 279.46C148.485 279.436 152.988 280.312 157.192 282.035C161.397 283.759 165.218 286.297 168.438 289.504C171.657 292.71 174.21 296.522 175.951 300.719C177.691 304.916 178.585 309.416 178.579 313.96ZM123.342 313.818C123.3 325.906 132 334.9 143.826 334.992C155.604 335.081 165.433 325.44 165.326 313.903C165.239 308.343 162.974 303.039 159.019 299.131C155.064 295.223 149.734 293.021 144.173 293C132.259 292.963 123.387 301.831 123.342 313.821" fill="#121212"/>
<path d="M16.3 338.581C26.553 333.444 36.6691 328.069 45.84 321.113C46.5081 320.631 47.2769 320.306 48.0885 320.163C48.9002 320.021 49.7336 320.064 50.5261 320.29C63.771 322.654 77.026 324.961 90.272 327.328C96.845 328.503 98.1561 328.043 102.303 322.606C103.775 328.408 106.165 333.938 109.382 338.986C81.6647 338.986 53.9477 338.982 26.231 338.975C22.921 338.975 19.61 338.718 16.3 338.581Z" fill="#FDFDFD"/>
<path d="M16.3 338.581C19.61 338.718 22.921 338.971 26.231 338.975C53.9477 339.004 81.6647 339.007 109.382 338.986L118.582 348.619H-13C-3.04751 345.842 6.73558 342.491 16.3 338.581Z" fill="#F2F2F2"/>
<path d="M316.321 166.191L284.576 159.827C285.119 159.477 285.722 159.228 286.355 159.094C298.766 159.041 311.178 159.081 323.59 159C326.175 158.983 326.573 160.349 326.534 162.448C326.497 164.405 326.461 166.127 323.758 166.06C321.281 166 318.8 166.139 316.321 166.191Z" fill="#ECF2FA"/>
<path d="M9.37302 288.254C8.38202 283.471 9.13202 278.633 8.92402 273.825C8.76402 270.133 11.574 271.089 13.494 271.168C15.15 271.236 18.094 269.868 17.813 273.384C17.419 278.337 18.129 283.396 16.499 288.238L9.37302 288.254Z" fill="#ECF2FA"/>
<path d="M7.472 267.837C7.372 260.416 7.372 260.414 14.893 260.415C16.359 260.415 17.824 260.435 19.293 260.447C19.217 267.99 19.217 267.997 11.893 267.973C10.421 267.973 8.95 267.885 7.478 267.837" fill="#ECF2FA"/>
<path d="M9.37299 288.254L16.499 288.238C16.531 289.227 16.499 290.223 16.606 291.205C16.918 294.188 16.584 296.005 12.606 295.968C8.57699 295.93 8.93399 293.707 9.03399 291.191C9.07299 290.209 9.25299 289.233 9.36899 288.254" fill="#ECF2FA"/>
<path d="M237.929 213.967C197.168 212.313 156.386 213.254 115.614 212.999C113.691 212.987 111.214 213.533 110.78 210.764C110.41 208.383 112.714 207.92 114.322 207.22C130.313 200.255 146.475 193.728 163.189 188.677C181.527 182.972 200.362 179.012 219.444 176.848C232.684 175.477 246.02 175.297 259.292 176.311C282.959 178.066 306.005 183.568 328.48 191.419C341.68 196.03 354.493 201.476 367.144 207.358C369.171 208.3 372.023 209.214 371.144 212.202C370.334 214.948 367.513 213.978 365.489 213.98C324.509 214.024 283.529 214.035 242.548 214.013C242.473 204.92 242.431 195.827 242.297 186.735C242.27 184.904 242.955 182.086 239.997 182.235C237.483 182.365 238.247 185.021 238.219 186.693C238.065 195.782 238.019 204.873 237.93 213.964" fill="#ECF2FA"/>
<path d="M237.929 213.967C238.015 204.876 238.064 195.785 238.218 186.696C238.246 185.024 237.482 182.368 239.996 182.238C242.952 182.086 242.267 184.904 242.296 186.738C242.43 195.83 242.472 204.923 242.547 214.016C242.471 214.842 242.447 215.676 242.311 216.492C241.637 220.641 242.893 222.085 247.54 222.065C294.34 221.857 341.145 221.938 387.948 221.939C389.28 221.939 390.613 221.939 391.948 221.96C393.212 221.976 394.355 222.316 394.41 223.803C394.464 225.252 393.41 225.803 392.131 225.895C390.97 225.976 389.801 225.947 388.631 225.948H170.774C170.608 225.963 170.44 225.963 170.274 225.948C168.357 225.607 165.04 227.008 165.183 223.786C165.321 220.686 168.614 222.009 170.508 222C190.661 221.9 210.815 221.941 230.969 221.941C238.616 221.941 238.616 221.941 237.928 213.973" fill="#45484A"/>
<path d="M292.178 306.075H218.791C217.46 306.075 216.127 306.094 214.798 306.034C213.507 305.975 212.481 305.483 212.576 303.965C212.604 303.46 212.828 302.987 213.2 302.645C213.572 302.303 214.063 302.119 214.568 302.134C215.724 302.027 216.895 302.067 218.059 302.067C267.65 302.067 317.24 302.067 366.831 302.067C367.164 302.067 367.499 302.041 367.831 302.067C369.538 302.224 372.106 301.419 372.223 303.985C372.346 306.685 369.748 306.024 368.063 306.049C363.405 306.12 358.745 306.074 354.085 306.074L292.178 306.075Z" fill="#45484A"/>
<path d="M138.273 225.942C132.784 225.942 127.294 225.953 121.805 225.936C120.305 225.936 118.534 226.036 118.443 223.936C118.343 221.653 120.243 221.953 121.674 221.949C132.653 221.923 143.632 221.92 154.61 221.939C156.078 221.939 157.955 221.696 157.994 223.816C158.032 225.816 156.323 225.947 154.741 225.943C149.251 225.931 143.762 225.943 138.273 225.943" fill="#45484A"/>
<path d="M255 240.765C256.824 240.765 258.649 240.749 260.473 240.776C261.873 240.796 263.365 241.025 263.273 242.796C263.185 244.44 261.733 244.766 260.329 244.773C256.514 244.793 252.699 244.783 248.884 244.773C247.404 244.773 246.041 244.227 246.074 242.635C246.109 240.945 247.619 240.746 249.032 240.755C251.022 240.768 253.013 240.755 255.003 240.762" fill="#45484A"/>
<path d="M459.676 314.245C459.699 316.873 459.192 319.478 458.187 321.905C457.182 324.333 455.699 326.533 453.826 328.376C451.952 330.218 449.728 331.665 447.284 332.63C444.84 333.595 442.227 334.058 439.6 333.992C434.298 333.851 429.258 331.659 425.54 327.877C421.821 324.096 419.713 319.02 419.66 313.717C419.591 303.208 429.231 293.917 440.134 293.994C451.25 294.067 459.739 302.865 459.673 314.245" fill="#9A9A9A"/>
<path d="M123.342 313.818C123.387 301.828 132.259 292.96 144.173 292.997C149.734 293.018 155.065 295.219 159.02 299.127C162.976 303.036 165.241 308.34 165.328 313.9C165.428 325.437 155.604 335.078 143.828 334.989C132 334.9 123.3 325.906 123.342 313.818Z" fill="#9A9A9A"/>
<path d="M213.927 221.31C213.918 197.264 220.392 162.893 211.634 147.71C195.645 122.838 169.179 135.555 169.179 135.555C156.937 139.839 151.826 163.008 155.021 221.315L213.927 221.31Z" fill="#3422F2"/>
<path d="M180.119 125.388C177.844 127.438 175.053 126.897 172.386 123.89C173.745 121.02 172.764 118.391 171.544 115.792C169.409 111.225 168.468 106.191 168.808 101.161C169.022 97.4933 169.876 94.2013 173.736 92.5258C174.749 92.0872 175.169 90.7674 176.173 90.0812C179.298 87.935 183.008 86.8021 186.799 86.8363C189.071 86.8257 191.341 86.8389 193.606 86.718C194.395 86.7029 195.169 86.5123 195.875 86.1603C196.58 85.8082 197.198 85.3034 197.684 84.6826C198.426 83.8889 199.446 83.4119 200.531 83.3508C201.616 83.2897 202.682 83.6493 203.509 84.3547C204.526 85.3206 205.289 86.5221 205.731 87.8529C206.997 91.9031 206.099 95.334 202.802 98.0766C200.769 99.26 198.428 99.8059 196.082 99.6435C194.297 99.5666 192.517 99.3714 190.735 99.1754C189.388 99.0248 188.725 99.4577 188.723 100.917C188.717 102.185 188.435 103.511 187.077 104.026C185.459 104.64 185.295 105.703 185.701 107.157C186.013 108.275 186.209 109.425 186.457 110.56L186.436 110.674L186.322 111.233C185.743 112.801 184.326 113.346 182.961 113.887C181.78 114.353 181.495 112.995 180.728 112.577C178.744 111.494 176.834 112.328 176.634 114.58C176.484 115.786 176.66 117.01 177.142 118.125C177.624 119.24 178.396 120.206 179.377 120.923C180.046 121.438 180.88 121.801 180.794 122.855L180.123 125.385" fill="#3B3B3B"/>
<path d="M180.792 122.86C180.875 121.807 180.045 121.445 179.375 120.928C178.394 120.211 177.622 119.245 177.139 118.13C176.657 117.015 176.481 115.791 176.631 114.585C176.833 112.336 178.744 111.505 180.725 112.582C181.491 112.999 181.777 114.357 182.958 113.892C184.324 113.353 185.738 112.802 186.318 111.238L186.431 110.679L186.453 110.566C187.084 110.416 187.27 109.904 187.428 109.369C188.026 107.352 188.567 105.315 189.235 103.322C189.821 101.577 190.468 100.316 192.889 101.494C194.601 102.363 196.502 102.793 198.422 102.745C200.342 102.697 202.219 102.173 203.886 101.22C205.056 104.139 205.868 107.19 206.305 110.304C206.432 111.082 206.4 111.847 207.253 112.234C207.764 113.381 209.533 114.049 208.599 115.748L203.691 116.957L206.202 118.142C206.924 121.583 205.566 124.63 204.387 127.708C202.978 129.819 200.377 129.336 198.494 130.428C198.006 130.196 197.489 130.031 196.956 129.937C192.681 129.676 188.526 128.416 184.824 126.259C183.264 125.414 181.664 124.551 180.796 122.856M194.89 109.24C196.966 107.914 199.33 107.106 201.784 106.885C202.324 106.848 202.972 106.852 202.815 106.014C202.807 105.875 202.768 105.74 202.7 105.619C202.632 105.497 202.538 105.392 202.425 105.312C202.311 105.232 202.181 105.178 202.044 105.155C201.907 105.131 201.766 105.139 201.633 105.178C199.077 105.746 196.332 106.003 194.889 109.237M199.473 109.29C199.854 109.664 200.764 108.978 200.82 110.075C200.861 110.886 201.259 111.734 202.293 111.191C203.368 110.627 202.533 109.617 202.462 108.89C202.343 107.669 201.504 108.458 200.962 108.645C200.453 108.821 199.971 109.071 199.478 109.288M201.182 121.837C199.796 121.454 198.652 120.473 196.699 119.671C198.207 121.411 199.483 122.062 201.182 121.837ZM203.642 120.853C202.731 121.197 202.155 121.238 201.787 121.864C202.526 122.081 203.057 121.988 203.642 120.853Z" fill="#DBDBDB"/>
<path d="M180.792 122.859C181.658 124.551 183.26 125.418 184.821 126.261C188.522 128.419 192.678 129.678 196.953 129.94C197.486 130.033 198.003 130.199 198.491 130.431C198.675 130.842 198.861 131.252 199.047 131.661C198.304 132.468 197.47 132.026 196.642 131.855C192.511 131.004 188.403 129.974 184.233 129.393C181.644 129.031 179.938 128.327 180.124 125.385L180.795 122.855" fill="#DBDBDB"/>
<path d="M203.894 100.19C203.53 99.4868 203.166 98.784 202.802 98.0812C206.1 95.3381 206.997 91.9085 205.731 87.8574C208.602 92.7239 207.961 97.0242 203.894 100.19Z" fill="#540B07"/>
<path d="M194.886 109.245C196.329 106.011 199.074 105.754 201.63 105.185C201.763 105.147 201.904 105.139 202.041 105.162C202.178 105.185 202.308 105.239 202.422 105.319C202.535 105.4 202.629 105.504 202.697 105.626C202.765 105.748 202.804 105.883 202.812 106.022C202.969 106.86 202.323 106.858 201.781 106.892C199.327 107.114 196.963 107.922 194.887 109.248" fill="#3B3B3B"/>
<path d="M199.472 109.301C199.966 109.084 200.448 108.834 200.957 108.658C201.505 108.473 202.339 107.677 202.457 108.903C202.528 109.629 203.364 110.64 202.288 111.205C201.253 111.748 200.855 110.9 200.815 110.088C200.759 108.991 199.849 109.677 199.468 109.303" fill="#3B3B3B"/>
<path d="M208.595 115.752C208.218 116.972 206.611 116.962 206.199 118.146L203.688 116.962L208.594 115.753" fill="#C9C9C9"/>
<path d="M201.174 121.849C199.48 122.07 198.205 121.417 196.69 119.682C198.64 120.485 199.783 121.463 201.174 121.849Z" fill="#C9C9C9"/>
<path d="M203.633 120.864C203.048 122 202.517 122.092 201.778 121.876C202.147 121.251 202.722 121.209 203.633 120.864Z" fill="#C9C9C9"/>
<path d="M240.048 158.336L238.792 152.954C238.792 152.954 245.43 149.366 249.198 150.263L251.53 154.928L240.048 158.336Z" fill="#F1F2F2"/>
<path d="M178.15 151.338C178.15 151.338 181.904 196.138 219.093 197.563C256.282 198.988 250.993 152.773 250.993 152.773L238.793 155.285C238.793 155.285 237.793 174.73 226.666 176.165C215.539 177.6 214.033 148.109 202.91 143.085C191.787 138.061 181.739 134.473 178.151 151.338" fill="#3422F2"/>
<path d="M237.764 151.188L230.814 149.031C230.397 148.9 230.048 148.609 229.844 148.221C229.641 147.833 229.6 147.381 229.729 146.963L233.929 133.442C234.059 133.023 234.35 132.674 234.738 132.47C235.126 132.265 235.579 132.223 235.997 132.353L242.947 134.51C243.155 134.574 243.347 134.679 243.515 134.818C243.682 134.956 243.82 135.127 243.921 135.319C244.022 135.511 244.084 135.722 244.104 135.938C244.124 136.154 244.101 136.372 244.036 136.58L239.836 150.099C239.772 150.306 239.667 150.499 239.528 150.666C239.39 150.833 239.219 150.971 239.027 151.072C238.835 151.174 238.624 151.236 238.408 151.256C238.192 151.275 237.974 151.252 237.766 151.188" fill="#254DA1"/>
<path d="M237.819 148.992L232.007 147.192C231.874 147.151 231.75 147.084 231.643 146.996C231.536 146.907 231.447 146.798 231.382 146.675C231.317 146.552 231.277 146.417 231.264 146.278C231.251 146.14 231.266 146 231.307 145.867L234.836 134.496C234.877 134.363 234.943 134.239 235.032 134.132C235.121 134.025 235.229 133.937 235.352 133.871C235.475 133.806 235.61 133.766 235.748 133.753C235.887 133.74 236.026 133.755 236.159 133.796L241.972 135.596C242.105 135.637 242.229 135.704 242.336 135.793C242.443 135.881 242.532 135.99 242.597 136.113C242.662 136.236 242.702 136.371 242.715 136.51C242.728 136.648 242.713 136.788 242.672 136.921L239.148 148.292C239.107 148.425 239.04 148.549 238.952 148.656C238.863 148.763 238.754 148.852 238.631 148.917C238.508 148.982 238.373 149.022 238.234 149.035C238.096 149.048 237.956 149.033 237.823 148.992" fill="#A9EAFF"/>
<path d="M239.29 140.471L236.123 141.494L235.69 140.291L234.644 140.668L235.443 142.882L239.632 141.529L239.29 140.471Z" fill="#254DA1"/>
<path d="M280.354 109.159C279.312 101.426 278.271 93.6959 277.232 85.9699C276.632 81.4449 276.126 76.9069 275.491 72.3869C274.928 68.3869 275.452 67.7269 279.6 67.7249C286.247 67.7203 292.895 67.7203 299.542 67.7249C300.607 67.7249 301.766 67.9369 302.294 66.6069H307.216C307.783 68.1361 308.723 69.4996 309.95 70.5739C311.177 71.6481 312.652 72.3992 314.243 72.7589L313.625 74.2389C306.633 74.2009 299.641 74.0909 292.651 74.1589C291.255 74.1628 289.902 74.6441 288.817 75.5229C287.732 76.4017 286.981 77.6251 286.687 78.9899C285.367 84.3179 284.234 89.6899 282.973 95.0359C282.605 96.5959 283.123 97.2629 284.699 97.1529C283.923 97.7749 283.388 98.6492 283.189 99.6239C282.624 102.211 281.926 104.769 281.308 107.345C281.141 108.04 281.351 108.906 280.355 109.154" fill="#F8F8FF"/>
<path d="M314.243 72.7609C314.775 72.5305 315.24 72.1707 315.597 71.7143C315.954 71.2579 316.191 70.7194 316.287 70.1479L316.219 70.1649C316.895 70.1719 316.919 69.5649 317.168 69.1649L317.244 69.0439L317.79 68.1439L317.718 68.1869L318.262 67.7009L318.291 67.6669C318.467 67.5636 318.609 67.4102 318.698 67.2263C318.787 67.0424 318.819 66.8363 318.791 66.6339L318.712 66.6879C319.094 66.7009 319.253 66.4879 319.262 66.1349L319.212 66.1869C319.285 66.1919 319.359 66.1812 319.428 66.1554C319.497 66.1297 319.56 66.0896 319.612 66.0377C319.664 65.9859 319.705 65.9235 319.731 65.8547C319.757 65.786 319.768 65.7124 319.764 65.6389L319.719 65.7069L320.749 65.1299L320.733 65.1689C321.509 64.883 322.254 64.5202 322.958 64.0859C323.665 63.5569 324.094 63.2759 324.683 64.2279C325.272 65.1799 326.337 64.8099 327.209 64.8119C337.009 64.8326 346.809 64.8306 356.609 64.8059C358.1 64.7999 358.941 64.9649 358.609 66.8339C355.864 82.1069 353.189 97.3909 350.483 112.671C350.398 112.992 350.286 113.304 350.146 113.605L349.704 113.983H348.681C348.522 113.783 348.363 113.783 348.204 113.983H307.695C307.648 113.896 307.579 113.823 307.494 113.772C307.409 113.721 307.312 113.695 307.213 113.695C307.114 113.695 307.017 113.721 306.932 113.772C306.847 113.823 306.778 113.896 306.731 113.983H305.7C305.094 112.568 304.632 111.527 306.928 110.952C307.95 110.606 308.882 110.038 309.658 109.288C310.434 108.538 311.033 107.625 311.413 106.615C311.805 105.722 311.753 105.173 312.893 105.015C313.924 104.873 315.183 104.321 315.064 103.047C314.926 101.561 313.503 102.111 312.639 102.147C310.85 102.213 309.707 101.726 309.722 99.7209C309.722 99.1399 309.729 98.5579 309.707 97.9779C309.656 96.6279 309.08 96.5779 308.196 97.3959C307.832 97.7339 307.296 98.0609 307.196 98.4789C306.544 101.194 305.436 100.399 304.265 98.8939C303.146 97.4549 302.136 97.6199 301.112 98.9689C300.862 99.2999 300.593 99.6158 300.306 99.9149C297.883 102.427 297.906 102.404 300.433 104.906C301.054 105.52 301.604 106.414 300.063 106.576C298.426 106.747 297.604 107.976 296.428 108.838C294.504 110.245 294.758 113.249 292.219 113.992L284.705 113.985C284.352 113.716 283.92 113.57 283.476 113.57C283.032 113.57 282.6 113.716 282.247 113.985L280.717 113.991L280.217 113.606C280.25 113.273 280.284 112.939 280.317 112.606C280.371 112.56 280.471 112.515 280.472 112.468C280.463 112.339 280.442 112.212 280.409 112.087L280.355 109.159C281.355 108.912 281.141 108.045 281.308 107.351C281.927 104.775 282.625 102.217 283.189 99.6289C283.389 98.654 283.923 97.7798 284.7 97.1579C285.305 96.4638 285.658 95.585 285.7 94.6649C286.759 90.0479 287.765 85.4189 288.839 80.8049C289.599 77.5439 290.717 76.6729 294.024 76.6659C299.93 76.6526 305.836 76.6506 311.742 76.6599C313.421 76.6599 314.725 76.3959 313.629 74.2429L314.247 72.7629M339.173 99.5719C336.517 99.5719 333.86 99.6259 331.207 99.5489C329.922 99.5119 329.14 99.9089 328.917 101.217C328.517 103.578 328.096 105.936 327.699 108.299C327.409 110.027 328.13 110.642 329.89 110.611C334.951 110.524 340.015 110.511 345.075 110.621C346.837 110.661 347.419 109.821 347.663 108.347C348.039 106.064 348.297 103.747 348.877 101.515C349.344 99.7149 348.542 99.5359 347.141 99.5569C344.486 99.5969 341.83 99.5679 339.175 99.5719" fill="#F8F8FF"/>
<path d="M282.245 113.981C282.598 113.711 283.03 113.565 283.474 113.565C283.918 113.565 284.35 113.711 284.703 113.981H282.245Z" fill="#F4F4F4"/>
<path d="M306.731 113.982C306.778 113.895 306.847 113.822 306.932 113.771C307.017 113.72 307.114 113.694 307.213 113.694C307.312 113.694 307.409 113.72 307.494 113.771C307.579 113.822 307.648 113.895 307.695 113.982H306.731Z" fill="#F4F4F4"/>
<path d="M349.704 113.981L350.146 113.603C350.167 113.926 350.015 114.046 349.704 113.981Z" fill="#F4F4F4"/>
<path d="M348.204 113.985C348.363 113.785 348.522 113.785 348.681 113.985L348.442 114.048L348.204 113.985Z" fill="#F4F4F4"/>
<path d="M280.216 113.6L280.716 113.985C280.403 114.046 280.182 113.985 280.216 113.6Z" fill="#F4F4F4"/>
<path d="M280.403 112.085C280.436 112.21 280.458 112.337 280.467 112.466C280.467 112.513 280.367 112.559 280.312 112.605L280.403 112.085Z" fill="#C8CCFC"/>
<path d="M317.79 68.1409L317.244 69.0409L317.79 68.1409Z" fill="#52578D"/>
<path d="M320.752 65.126L319.722 65.703C320.065 65.5103 320.408 65.318 320.752 65.126Z" fill="#52578D"/>
<path d="M318.263 67.697L317.718 68.183L318.263 67.697Z" fill="#52578D"/>
<path d="M339.173 99.5719C341.829 99.5719 344.484 99.5989 347.139 99.5589C348.539 99.5379 349.339 99.7169 348.875 101.517C348.295 103.749 348.038 106.065 347.661 108.349C347.418 109.827 346.836 110.662 345.073 110.623C340.014 110.51 334.949 110.523 329.888 110.613C328.128 110.644 327.407 110.029 327.697 108.301C328.097 105.939 328.513 103.581 328.915 101.219C329.138 99.9109 329.921 99.5139 331.205 99.5509C333.858 99.6279 336.515 99.5739 339.171 99.5729" fill="#3B3B3B"/>
<path d="M300.74 112.549C300.126 112.534 299.559 112.377 299.456 111.684C299.369 111.096 299.79 110.784 300.324 110.715C300.466 110.685 300.612 110.685 300.754 110.715C300.896 110.745 301.03 110.804 301.148 110.889C301.265 110.973 301.364 111.082 301.437 111.207C301.51 111.332 301.557 111.471 301.573 111.615C301.701 112.241 301.313 112.499 300.74 112.553" fill="#FDFDFD"/>
<path d="M351.083 114.783L360.166 63.1777L321.794 62.8857" stroke="#52578D"/>
<path d="M313.41 75.5314H292.043C292.043 75.5314 289.32 74.4806 287.583 81.1926C285.846 87.9046 283.683 96.592 283.683 96.592" stroke="#52578D"/>
<path d="M301.784 66.6317H276.977C276.977 66.6317 273.023 65.974 273.921 71.246C274.819 76.518 279.369 114.819 279.369 114.819H350.734" stroke="#52578D"/>
<path d="M326.578 58.669L318.311 44.337C318.078 43.9184 317.737 43.5696 317.324 43.3268C316.911 43.0841 316.44 42.9561 315.961 42.9561C315.482 42.9561 315.011 43.0841 314.598 43.3268C314.185 43.5696 313.844 43.9184 313.611 44.337L305.219 58.876C304.983 59.2851 304.859 59.7492 304.859 60.2216C304.859 60.694 304.983 61.158 305.22 61.567C305.456 61.976 305.796 62.3156 306.205 62.5515C306.614 62.7874 307.079 62.9114 307.551 62.911H324.33L324.405 62.902C325.112 62.8947 325.787 62.6094 326.286 62.1079C326.784 61.6063 327.064 60.9289 327.067 60.222C327.076 59.6652 326.904 59.1205 326.578 58.669Z" fill="#3422F2" stroke="#52578D"/>
<path d="M311 62H321V70C321 71.3261 320.473 72.5979 319.536 73.5355C318.598 74.4732 317.326 75 316 75C314.674 75 313.402 74.4732 312.464 73.5355C311.527 72.5979 311 71.3261 311 70V62Z" fill="#3422F2"/>
<path d="M311.5 62.5H320.5V70C320.5 71.1935 320.026 72.3381 319.182 73.182C318.338 74.0259 317.193 74.5 316 74.5V74.5C314.807 74.5 313.662 74.0259 312.818 73.182C311.974 72.3381 311.5 71.1935 311.5 70V62.5Z" stroke="#52578D"/>
<path d="M310.438 62.9111L321.907 62.8438" stroke="#52578D"/>
<path d="M310.671 62L324.671 61.9219L310.671 62Z" fill="#3422F2"/>
<path d="M310.671 62L324.671 61.9219" stroke="#50F7FF" stroke-width="0.9"/>
<path d="M346.453 145C346.281 145 346.11 144.978 345.943 144.934L330.48 140.793C329.97 140.651 329.536 140.315 329.272 139.857C329.007 139.399 328.934 138.855 329.066 138.343L331.017 131.071C331.053 130.945 331.137 130.838 331.251 130.773C331.365 130.708 331.5 130.691 331.627 130.725C331.754 130.759 331.862 130.841 331.929 130.954C331.995 131.067 332.015 131.202 331.983 131.329L330.033 138.6C329.967 138.857 330.005 139.129 330.138 139.359C330.27 139.589 330.488 139.757 330.743 139.829L346.2 143.967C346.454 144.033 346.724 143.997 346.952 143.866C347.18 143.735 347.347 143.52 347.417 143.267L348.198 140.373C348.233 140.245 348.316 140.136 348.431 140.069C348.546 140.003 348.683 139.985 348.811 140.02C348.939 140.054 349.048 140.138 349.115 140.253C349.181 140.368 349.199 140.505 349.164 140.633L348.384 143.523C348.269 143.947 348.018 144.322 347.669 144.589C347.32 144.855 346.892 145 346.453 145Z" fill="#52578D"/>
<path d="M351 139H335C334.47 139 333.961 138.789 333.586 138.414C333.211 138.039 333 137.53 333 137V125C333 124.47 333.211 123.961 333.586 123.586C333.961 123.211 334.47 123 335 123H351C351.53 123 352.039 123.211 352.414 123.586C352.789 123.961 353 124.47 353 125V137C353 137.53 352.789 138.039 352.414 138.414C352.039 138.789 351.53 139 351 139ZM335 124C334.735 124 334.48 124.105 334.293 124.293C334.105 124.48 334 124.735 334 125V137C334 137.265 334.105 137.52 334.293 137.707C334.48 137.895 334.735 138 335 138H351C351.265 138 351.52 137.895 351.707 137.707C351.895 137.52 352 137.265 352 137V125C352 124.735 351.895 124.48 351.707 124.293C351.52 124.105 351.265 124 351 124H335Z" fill="#52578D"/>
<path d="M338 130C337.604 130 337.218 129.883 336.889 129.663C336.56 129.443 336.304 129.131 336.152 128.765C336.001 128.4 335.961 127.998 336.038 127.61C336.116 127.222 336.306 126.865 336.586 126.586C336.865 126.306 337.222 126.116 337.61 126.038C337.998 125.961 338.4 126.001 338.765 126.152C339.131 126.304 339.443 126.56 339.663 126.889C339.883 127.218 340 127.604 340 128C340 128.53 339.789 129.039 339.414 129.414C339.039 129.789 338.53 130 338 130ZM338 127C337.802 127 337.609 127.059 337.444 127.169C337.28 127.278 337.152 127.435 337.076 127.617C337 127.8 336.981 128.001 337.019 128.195C337.058 128.389 337.153 128.567 337.293 128.707C337.433 128.847 337.611 128.942 337.805 128.981C337.999 129.019 338.2 129 338.383 128.924C338.565 128.848 338.722 128.72 338.831 128.556C338.941 128.391 339 128.198 339 128C339 127.735 338.895 127.48 338.707 127.293C338.52 127.105 338.265 127 338 127Z" fill="#52578D"/>
<path d="M333.57 137.93C333.471 137.93 333.375 137.901 333.292 137.846C333.21 137.791 333.146 137.713 333.108 137.622C333.07 137.53 333.06 137.43 333.08 137.333C333.099 137.236 333.146 137.147 333.216 137.077L337.939 132.354C338.225 132.082 338.605 131.93 338.999 131.93C339.394 131.93 339.774 132.082 340.06 132.354L341.466 133.76L345.358 129.09C345.498 128.922 345.672 128.787 345.869 128.694C346.067 128.601 346.282 128.552 346.5 128.55H346.511C346.727 128.55 346.941 128.597 347.138 128.687C347.334 128.777 347.509 128.909 347.65 129.073L352.88 135.173C352.965 135.274 353.006 135.404 352.995 135.535C352.984 135.667 352.922 135.788 352.822 135.874C352.723 135.96 352.593 136.003 352.461 135.993C352.33 135.984 352.208 135.923 352.121 135.824L346.891 129.724C346.844 129.669 346.786 129.625 346.72 129.595C346.654 129.565 346.583 129.55 346.511 129.55C346.438 129.552 346.366 129.569 346.3 129.6C346.234 129.631 346.175 129.675 346.127 129.73L341.884 134.821C341.839 134.874 341.784 134.918 341.722 134.949C341.66 134.98 341.591 134.997 341.522 135C341.452 135.004 341.383 134.994 341.318 134.968C341.253 134.943 341.194 134.904 341.146 134.854L339.353 133.061C339.257 132.971 339.131 132.92 338.999 132.92C338.868 132.92 338.741 132.971 338.646 133.061L333.923 137.784C333.829 137.878 333.702 137.93 333.57 137.93Z" fill="#52578D"/>
</g>
<defs>
<clipPath id="clip0_90_958">
<rect width="428" height="374" fill="white"/>
</clipPath>
</defs>
</svg>
